NotoSansSundanese-Medium.ufo
<glyph name="hyphen" format="2">
  <advance width="329.84313725490193"/>
  <unicode hex="002D"/>
  <outline>
    <contour>
      <point x="41.568627450980394" y="228.84313725490196" type="line"/>
      <point x="288.27450980392155" y="228.84313725490196" type="line"/>
      <point x="288.27450980392155" y="315.3137254901961" type="line"/>
      <point x="41.568627450980394" y="315.3137254901961" type="line"/>
    </contour>
  </outline>
</glyph>
<glyph name="uni1B80" format="2">
  <unicode hex="1B80"/>
  <outline>
    <contour>
      <point x="-219.13725490196077" y="753.3333333333334" type="curve" smooth="yes"/>
      <point x="-157.62745098039215" y="753.3333333333334"/>
      <point x="-107.43137254901961" y="803.5294117647059"/>
      <point x="-107.43137254901961" y="865.3529411764706" type="curve" smooth="yes"/>
      <point x="-107.43137254901961" y="926.8627450980392"/>
      <point x="-157.62745098039215" y="977.0588235294117"/>
      <point x="-219.13725490196077" y="977.0588235294117" type="curve" smooth="yes"/>
      <point x="-280.96078431372547" y="977.0588235294117"/>
      <point x="-331.0" y="926.8627450980392"/>
      <point x="-331.0" y="865.3529411764706" type="curve" smooth="yes"/>
      <point x="-331.0" y="803.5294117647059"/>
      <point x="-280.96078431372547" y="753.3333333333334"/>
    </contour>
    <contour>
      <point x="-219.13725490196077" y="815.0980392156863" type="curve" smooth="yes"/>
      <point x="-247.078431372549" y="815.0980392156863"/>
      <point x="-269.2352941176471" y="837.4117647058823"/>
      <point x="-269.2352941176471" y="865.3529411764706" type="curve" smooth="yes"/>
      <point x="-269.2352941176471" y="893.1372549019608"/>
      <point x="-247.078431372549" y="914.2941176470588"/>
      <point x="-219.13725490196077" y="914.2941176470588" type="curve" smooth="yes"/>
      <point x="-191.35294117647058" y="914.2941176470588"/>
      <point x="-170.19607843137254" y="893.1372549019608"/>
      <point x="-170.19607843137254" y="865.3529411764706" type="curve" smooth="yes"/>
      <point x="-170.19607843137254" y="837.4117647058823"/>
      <point x="-191.35294117647058" y="815.0980392156863"/>
    </contour>
  </outline>
</glyph>
<glyph name="uni1B81" format="2">
  <unicode hex="1B81"/>
  <outline>
    <contour>
      <point x="-209.84313725490196" y="756.0" type="line"/>
      <point x="-166.0" y="756.0" type="line"/>
      <point x="-62.627450980392155" y="932.9019607843137" type="line"/>
      <point x="-111.07843137254902" y="961.6274509803922" type="line"/>
      <point x="-189.13725490196077" y="834.1960784313726" type="line"/>
      <point x="-259.72549019607845" y="939.0" type="line"/>
      <point x="-310.0980392156863" y="939.0" type="line"/>
      <point x="-378.0980392156863" y="837.7843137254902" type="line"/>
      <point x="-336.7450980392157" y="808.2156862745098" type="line"/>
      <point x="-290.05882352941177" y="873.5882352941177" type="line"/>
    </contour>
  </outline>
</glyph>
<glyph name="uni1B82" format="2">
  <advance width="392.96078431372547"/>
  <unicode hex="1B82"/>
  <outline>
    <contour>
      <point x="97.86274509803921" y="0.0" type="line"/>
      <point x="170.35294117647058" y="0.0" type="line"/>
      <point x="71.45098039215686" y="284.0" type="line"/>
      <point x="-1.0392156862745097" y="284.0" type="line"/>
    </contour>
    <contour>
      <point x="237.5686274509804" y="0.0" type="line"/>
      <point x="310.05882352941177" y="0.0" type="line"/>
      <point x="211.15686274509804" y="284.0" type="line"/>
      <point x="138.66666666666666" y="284.0" type="line"/>
    </contour>
  </outline>
</glyph>
<glyph name="uni1B83" format="2">
  <advance width="875.2352941176471"/>
  <unicode hex="1B83"/>
  <outline>
    <contour>
      <point x="497.62745098039215" y="-13.313725490196079" type="curve" smooth="yes"/>
      <point x="725.9019607843137" y="-13.313725490196079"/>
      <point x="804.3725490196078" y="100.76470588235294"/>
      <point x="804.3725490196078" y="226.13725490196077" type="curve" smooth="yes"/>
      <point x="804.3725490196078" y="338.80392156862746"/>
      <point x="697.6470588235294" y="425.1372549019608"/>
      <point x="550.1372549019608" y="425.1372549019608" type="curve"/>
      <point x="793.5882352941177" y="641.3333333333334" type="line"/>
      <point x="801.3725490196078" y="714.0" type="line"/>
      <point x="377.0980392156863" y="714.0" type="line"/>
      <point x="348.4901960784314" y="623.5490196078431" type="line"/>
      <point x="639.156862745098" y="623.5490196078431" type="line"/>
      <point x="416.84313725490193" y="425.1372549019608" type="line"/>
      <point x="391.4901960784314" y="344.921568627451" type="line"/>
      <point x="490.8235294117647" y="344.921568627451" type="line" smooth="yes"/>
      <point x="609.5098039215686" y="344.921568627451"/>
      <point x="692.6078431372549" y="301.7450980392157"/>
      <point x="692.6078431372549" y="226.13725490196077" type="curve" smooth="yes"/>
      <point x="692.6078431372549" y="143.80392156862746"/>
      <point x="631.2941176470588" y="79.98039215686275"/>
      <point x="497.15686274509807" y="79.98039215686275" type="curve" smooth="yes"/>
      <point x="285.94117647058823" y="79.98039215686275"/>
      <point x="181.33333333333334" y="212.33333333333334"/>
      <point x="181.33333333333334" y="396.6666666666667" type="curve" smooth="yes"/>
      <point x="181.33333333333334" y="529.3333333333334"/>
      <point x="218.7058823529412" y="616.7254901960785"/>
      <point x="305.6666666666667" y="736.0" type="curve"/>
      <point x="193.3921568627451" y="736.0" type="line"/>
      <point x="122.17647058823529" y="649.0"/>
      <point x="75.86274509803921" y="520.6862745098039"/>
      <point x="75.86274509803921" y="396.6666666666667" type="curve" smooth="yes"/>
      <point x="75.86274509803921" y="169.7843137254902"/>
      <point x="199.8235294117647" y="-13.313725490196079"/>
    </contour>
  </outline>
</glyph>
<glyph name="uni1B84" format="2">
  <advance width="566.3333333333334"/>
  <unicode hex="1B84"/>
  <outline>
    <contour>
      <point x="-23.568627450980394" y="0.0" type="line"/>
      <point x="445.27450980392155" y="0.0" type="line"/>
      <point x="516.4117647058823" y="215.41176470588235" type="line"/>
      <point x="408.29411764705884" y="215.41176470588235" type="line"/>
      <point x="366.2352941176471" y="91.54901960784314" type="line"/>
      <point x="117.62745098039215" y="91.54901960784314" type="line"/>
      <point x="292.3137254901961" y="622.4509803921569" type="line"/>
      <point x="416.3137254901961" y="622.4509803921569" type="line"/>
      <point x="446.54901960784315" y="714.0" type="line"/>
      <point x="212.4313725490196" y="714.0" type="line"/>
    </contour>
  </outline>
</glyph>
<glyph name="uni1B85" format="2">
  <advance width="772.843137254902"/>
  <unicode hex="1B85"/>
  <outline>
    <contour>
      <point x="89.33333333333333" y="0.0" type="line"/>
      <point x="667.5490196078431" y="0.0" type="line"/>
      <point x="687.7450980392157" y="61.21568627450981" type="line"/>
      <point x="564.7843137254902" y="170.80392156862746" type="line" smooth="yes"/>
      <point x="542.7058823529412" y="190.09803921568627"/>
      <point x="509.6078431372549" y="218.5686274509804"/>
      <point x="509.6078431372549" y="236.47058823529412" type="curve" smooth="yes"/>
      <point x="509.6078431372549" y="250.52941176470588"/>
      <point x="515.7647058823529" y="269.4901960784314"/>
      <point x="554.7647058823529" y="269.4901960784314" type="curve" smooth="yes"/>
      <point x="744.5686274509804" y="269.4901960784314" type="line"/>
      <point x="774.6470588235294" y="360.4117647058824" type="line"/>
      <point x="546.3921568627451" y="360.4117647058824" type="line" smooth="yes"/>
      <point x="442.80392156862746" y="360.4117647058824"/>
      <point x="402.078431372549" y="309.3137254901961"/>
      <point x="402.078431372549" y="245.58823529411765" type="curve" smooth="yes"/>
      <point x="402.078431372549" y="203.15686274509804"/>
      <point x="431.19607843137254" y="166.2549019607843"/>
      <point x="458.72549019607845" y="141.62745098039215" type="curve" smooth="yes"/>
      <point x="514.8627450980392" y="90.76470588235294" type="line"/>
      <point x="233.47058823529412" y="90.76470588235294" type="line"/>
      <point x="439.54901960784315" y="714.0" type="line"/>
      <point x="98.62745098039215" y="714.0" type="line"/>
      <point x="68.54901960784314" y="622.4509803921569" type="line"/>
      <point x="294.2549019607843" y="622.4509803921569" type="line"/>
    </contour>
  </outline>
</glyph>
<glyph name="uni1B86" format="2">
  <advance width="911.0"/>
  <unicode hex="1B86"/>
  <outline>
    <contour>
      <point x="505.2156862745098" y="-13.313725490196079" type="curve" smooth="yes"/>
      <point x="746.9803921568628" y="-13.313725490196079"/>
      <point x="838.0980392156863" y="100.76470588235294"/>
      <point x="838.0980392156863" y="225.66666666666666" type="curve" smooth="yes"/>
      <point x="838.0980392156863" y="338.4901960784314"/>
      <point x="729.8039215686274" y="423.0980392156863"/>
      <point x="581.8235294117648" y="423.0980392156863" type="curve"/>
      <point x="616.156862745098" y="453.6470588235294"/>
      <point x="656.4705882352941" y="475.29411764705884"/>
      <point x="715.9607843137255" y="475.29411764705884" type="curve" smooth="yes"/>
      <point x="789.5490196078431" y="475.29411764705884"/>
      <point x="797.0588235294117" y="421.8235294117647"/>
      <point x="842.0" y="421.8235294117647" type="curve" smooth="yes"/>
      <point x="868.0" y="421.8235294117647"/>
      <point x="886.156862745098" y="438.6078431372549"/>
      <point x="886.156862745098" y="463.6078431372549" type="curve" smooth="yes"/>
      <point x="886.156862745098" y="492.54901960784315"/>
      <point x="856.843137254902" y="533.9215686274509"/>
      <point x="778.7843137254902" y="533.9215686274509" type="curve" smooth="yes"/>
      <point x="747.2156862745098" y="533.9215686274509"/>
      <point x="715.9019607843137" y="526.4509803921569"/>
      <point x="688.3137254901961" y="518.7647058823529" type="curve"/>
      <point x="827.3137254901961" y="641.3333333333334" type="line"/>
      <point x="835.0980392156863" y="714.0" type="line"/>
      <point x="410.8235294117647" y="714.0" type="line"/>
      <point x="382.2156862745098" y="623.5490196078431" type="line"/>
      <point x="673.3529411764706" y="623.5490196078431" type="line"/>
      <point x="450.5686274509804" y="425.1372549019608" type="line"/>
      <point x="425.2156862745098" y="344.921568627451" type="line"/>
      <point x="524.5490196078431" y="344.921568627451" type="line" smooth="yes"/>
      <point x="643.2352941176471" y="344.921568627451"/>
      <point x="726.3333333333334" y="301.7450980392157"/>
      <point x="726.3333333333334" y="226.13725490196077" type="curve" smooth="yes"/>
      <point x="726.3333333333334" y="143.80392156862746"/>
      <point x="650.6862745098039" y="79.98039215686275"/>
      <point x="504.7450980392157" y="79.98039215686275" type="curve" smooth="yes"/>
      <point x="280.03921568627453" y="79.98039215686275"/>
      <point x="181.33333333333334" y="212.33333333333334"/>
      <point x="181.33333333333334" y="396.6666666666667" type="curve" smooth="yes"/>
      <point x="181.33333333333334" y="525.1176470588235"/>
      <point x="217.01960784313727" y="615.8823529411765"/>
      <point x="305.6666666666667" y="736.0" type="curve"/>
      <point x="193.3921568627451" y="736.0" type="line"/>
      <point x="122.17647058823529" y="648.156862745098"/>
      <point x="75.86274509803921" y="520.6862745098039"/>
      <point x="75.86274509803921" y="396.6666666666667" type="curve" smooth="yes"/>
      <point x="75.86274509803921" y="169.7843137254902"/>
      <point x="195.6078431372549" y="-13.313725490196079"/>
    </contour>
  </outline>
</glyph>
<glyph name="uni1B87" format="2">
  <advance width="833.0196078431372"/>
  <unicode hex="1B87"/>
  <outline>
    <contour>
      <point x="99.05882352941177" y="0.0" type="line"/>
      <point x="495.7450980392157" y="0.0" type="line"/>
      <point x="568.0196078431372" y="207.6078431372549" type="line" smooth="yes"/>
      <point x="577.4313725490196" y="234.68627450980392"/>
      <point x="589.8039215686274" y="275.7647058823529"/>
      <point x="636.5098039215686" y="275.7647058823529" type="curve" smooth="yes"/>
      <point x="668.4705882352941" y="275.7647058823529"/>
      <point x="678.156862745098" y="259.8627450980392"/>
      <point x="678.156862745098" y="239.01960784313727" type="curve" smooth="yes"/>
      <point x="678.156862745098" y="220.01960784313727"/>
      <point x="671.0" y="196.3921568627451"/>
      <point x="664.843137254902" y="178.6078431372549" type="curve" smooth="yes"/>
      <point x="607.5686274509804" y="0.0" type="line"/>
      <point x="715.7843137254902" y="0.0" type="line"/>
      <point x="784.6470588235294" y="207.2156862745098" type="line" smooth="yes"/>
      <point x="790.4313725490196" y="223.72549019607843"/>
      <point x="792.9019607843137" y="239.921568627451"/>
      <point x="792.9019607843137" y="253.9607843137255" type="curve" smooth="yes"/>
      <point x="792.9019607843137" y="326.7647058823529"/>
      <point x="723.9215686274509" y="364.4313725490196"/>
      <point x="651.4509803921569" y="364.4313725490196" type="curve" smooth="yes"/>
      <point x="532.0196078431372" y="364.4313725490196"/>
      <point x="490.3529411764706" y="300.4901960784314"/>
      <point x="466.94117647058823" y="235.0392156862745" type="curve" smooth="yes"/>
      <point x="415.54901960784315" y="91.54901960784314" type="line"/>
      <point x="241.0" y="91.54901960784314" type="line"/>
      <point x="450.7450980392157" y="714.0" type="line"/>
      <point x="80.27450980392157" y="714.0" type="line"/>
      <point x="220.0392156862745" y="357.96078431372547" type="line"/>
    </contour>
    <contour>
      <point x="264.2156862745098" y="483.29411764705884" type="line"/>
      <point x="211.5686274509804" y="623.2352941176471" type="line"/>
      <point x="312.0" y="623.2352941176471" type="line"/>
    </contour>
  </outline>
</glyph>
<glyph name="uni1B88" format="2">
  <advance width="795.0"/>
  <unicode hex="1B88"/>
  <outline>
    <contour>
      <point x="409.2156862745098" y="-13.0" type="curve" smooth="yes"/>
      <point x="636.5098039215686" y="-13.0"/>
      <point x="750.8235294117648" y="155.90196078431373"/>
      <point x="750.8235294117648" y="342.4313725490196" type="curve" smooth="yes"/>
      <point x="750.8235294117648" y="382.078431372549" type="line"/>
      <point x="680.0" y="382.078431372549" type="line" smooth="yes"/>
      <point x="458.70588235294116" y="382.078431372549"/>
      <point x="398.84313725490193" y="417.1372549019608"/>
      <point x="398.84313725490193" y="494.4901960784314" type="curve" smooth="yes"/>
      <point x="398.84313725490193" y="602.5490196078431"/>
      <point x="540.0784313725491" y="624.6470588235294"/>
      <point x="689.4705882352941" y="624.6470588235294" type="curve" smooth="yes"/>
      <point x="714.4705882352941" y="624.6470588235294" type="line"/>
      <point x="742.9803921568628" y="714.0" type="line"/>
      <point x="695.9411764705883" y="714.0" type="line" smooth="yes"/>
      <point x="492.5098039215686" y="714.0"/>
      <point x="289.11764705882354" y="675.1372549019608"/>
      <point x="289.11764705882354" y="491.96078431372547" type="curve" smooth="yes"/>
      <point x="289.11764705882354" y="352.54901960784315"/>
      <point x="402.05882352941177" y="285.29411764705884"/>
      <point x="635.6470588235294" y="285.29411764705884" type="curve"/>
      <point x="635.6470588235294" y="198.0"/>
      <point x="547.2941176470588" y="79.3529411764706"/>
      <point x="410.3137254901961" y="79.3529411764706" type="curve" smooth="yes"/>
      <point x="236.9607843137255" y="79.3529411764706"/>
      <point x="141.33333333333334" y="215.33333333333334"/>
      <point x="141.33333333333334" y="422.0980392156863" type="curve" smooth="yes"/>
      <point x="141.33333333333334" y="454.03921568627453" type="line"/>
      <point x="34.294117647058826" y="454.03921568627453" type="line"/>
      <point x="34.294117647058826" y="405.0980392156863" type="line" smooth="yes"/>
      <point x="34.294117647058826" y="195.52941176470588"/>
      <point x="131.9607843137255" y="-13.0"/>
    </contour>
  </outline>
</glyph>
<glyph name="uni1B89" format="2">
  <advance width="871.0"/>
  <unicode hex="1B89"/>
  <outline>
    <contour>
      <point x="497.62745098039215" y="-13.313725490196079" type="curve" smooth="yes"/>
      <point x="724.2352941176471" y="-13.313725490196079"/>
      <point x="804.3725490196078" y="88.3921568627451"/>
      <point x="804.3725490196078" y="195.0392156862745" type="curve" smooth="yes"/>
      <point x="804.3725490196078" y="304.2549019607843"/>
      <point x="723.4509803921569" y="381.15686274509807"/>
      <point x="578.4509803921569" y="381.15686274509807" type="curve"/>
      <point x="778.4117647058823" y="482.54901960784315" type="line"/>
      <point x="787.8823529411765" y="567.0196078431372" type="line"/>
      <point x="390.5882352941176" y="567.0196078431372" type="line"/>
      <point x="362.6078431372549" y="478.1372549019608" type="line"/>
      <point x="610.6078431372549" y="478.1372549019608" type="line"/>
      <point x="440.45098039215685" y="392.96078431372547" type="line"/>
      <point x="410.88235294117646" y="301.4117647058824" type="line"/>
      <point x="517.8039215686274" y="301.4117647058824" type="line" smooth="yes"/>
      <point x="636.4901960784314" y="301.4117647058824"/>
      <point x="692.6078431372549" y="268.6078431372549"/>
      <point x="692.6078431372549" y="195.0392156862745" type="curve" smooth="yes"/>
      <point x="692.6078431372549" y="128.52941176470588"/>
      <point x="622.843137254902" y="79.98039215686275"/>
      <point x="497.15686274509807" y="79.98039215686275" type="curve" smooth="yes"/>
      <point x="285.94117647058823" y="79.98039215686275"/>
      <point x="181.33333333333334" y="212.33333333333334"/>
      <point x="181.33333333333334" y="396.6666666666667" type="curve" smooth="yes"/>
      <point x="181.33333333333334" y="520.0588235294117"/>
      <point x="214.49019607843138" y="612.5098039215686"/>
      <point x="305.6666666666667" y="736.0" type="curve"/>
      <point x="193.3921568627451" y="736.0" type="line"/>
      <point x="122.17647058823529" y="649.0"/>
      <point x="75.86274509803921" y="519.0"/>
      <point x="75.86274509803921" y="396.6666666666667" type="curve" smooth="yes"/>
      <point x="75.86274509803921" y="169.7843137254902"/>
      <point x="199.8235294117647" y="-13.313725490196079"/>
    </contour>
    <contour>
      <point x="565.6470588235294" y="607.5686274509804" type="line"/>
      <point x="636.3529411764706" y="607.5686274509804" type="line"/>
      <point x="786.9215686274509" y="759.5686274509804" type="line"/>
      <point x="686.8627450980392" y="759.5686274509804" type="line"/>
      <point x="601.0" y="674.9607843137255" type="line"/>
      <point x="514.9803921568628" y="759.5686274509804" type="line"/>
      <point x="414.921568627451" y="759.5686274509804" type="line"/>
    </contour>
  </outline>
</glyph>
<glyph name="uni1B8A" format="2">
  <advance width="803.1960784313726"/>
  <unicode hex="1B8A"/>
  <outline>
    <contour>
      <point x="492.7450980392157" y="0.0" type="line"/>
      <point x="605.0784313725491" y="0.0" type="line"/>
      <point x="843.0784313725491" y="714.0" type="line"/>
      <point x="509.2352941176471" y="714.0" type="line"/>
      <point x="479.0" y="622.4509803921569" type="line"/>
      <point x="702.5098039215686" y="622.4509803921569" type="line"/>
    </contour>
    <contour>
      <point x="84.0392156862745" y="0.0" type="line"/>
      <point x="196.37254901960785" y="0.0" type="line"/>
      <point x="434.37254901960785" y="714.0" type="line"/>
      <point x="100.52941176470588" y="714.0" type="line"/>
      <point x="70.29411764705883" y="622.4509803921569" type="line"/>
      <point x="293.80392156862746" y="622.4509803921569" type="line"/>
    </contour>
  </outline>
</glyph>
<glyph name="uni1B8B" format="2">
  <advance width="826.6666666666666"/>
  <unicode hex="1B8B"/>
  <outline>
    <contour>
      <point x="-26.137254901960784" y="0.0" type="line"/>
      <point x="88.54901960784314" y="0.0" type="line"/>
      <point x="294.47058823529414" y="622.4509803921569" type="line"/>
      <point x="451.4117647058824" y="622.4509803921569" type="line"/>
      <point x="245.49019607843138" y="0.0" type="line"/>
      <point x="360.1764705882353" y="0.0" type="line"/>
      <point x="565.0980392156863" y="622.4509803921569" type="line"/>
      <point x="722.0392156862745" y="622.4509803921569" type="line"/>
      <point x="516.1176470588235" y="0.0" type="line"/>
      <point x="631.1176470588235" y="0.0" type="line"/>
      <point x="865.1176470588235" y="714.0" type="line"/>
      <point x="209.86274509803923" y="714.0" type="line"/>
    </contour>
  </outline>
</glyph>
<glyph name="uni1B8C" format="2">
  <advance width="813.0784313725491"/>
  <unicode hex="1B8C"/>
  <outline>
    <contour>
      <point x="90.17647058823529" y="0.0" type="line"/>
      <point x="642.3333333333334" y="0.0" type="line"/>
      <point x="760.0" y="358.84313725490193" type="line"/>
      <point x="477.11764705882354" y="358.84313725490193" type="line"/>
      <point x="446.88235294117646" y="267.29411764705884" type="line"/>
      <point x="620.6078431372549" y="267.29411764705884" type="line"/>
      <point x="562.4117647058823" y="91.54901960784314" type="line"/>
      <point x="234.62745098039215" y="91.54901960784314" type="line"/>
      <point x="440.3921568627451" y="714.0" type="line"/>
      <point x="100.31372549019608" y="714.0" type="line"/>
      <point x="70.23529411764706" y="622.4509803921569" type="line"/>
      <point x="295.0980392156863" y="622.4509803921569" type="line"/>
    </contour>
  </outline>
</glyph>
<glyph name="uni1B8D" format="2">
  <advance width="743.6862745098039"/>
  <unicode hex="1B8D"/>
  <outline>
    <contour>
      <point x="90.17647058823529" y="0.0" type="line"/>
      <point x="696.8235294117648" y="0.0" type="line"/>
      <point x="580.4705882352941" y="358.6862745098039" type="line"/>
      <point x="469.7843137254902" y="358.6862745098039" type="line"/>
      <point x="556.0588235294117" y="91.54901960784314" type="line"/>
      <point x="234.62745098039215" y="91.54901960784314" type="line"/>
      <point x="440.3921568627451" y="714.0" type="line"/>
      <point x="100.31372549019608" y="714.0" type="line"/>
      <point x="70.23529411764706" y="622.4509803921569" type="line"/>
      <point x="295.0980392156863" y="622.4509803921569" type="line"/>
    </contour>
  </outline>
</glyph>
<glyph name="uni1B8E" format="2">
  <advance width="761.6078431372549"/>
  <unicode hex="1B8E"/>
  <outline>
    <contour>
      <point x="428.05882352941177" y="-14.0" type="curve" smooth="yes"/>
      <point x="535.5490196078431" y="-14.0"/>
      <point x="583.0784313725491" y="45.8235294117647"/>
      <point x="629.8039215686274" y="187.0" type="curve" smooth="yes"/>
      <point x="804.8039215686274" y="714.0" type="line"/>
      <point x="692.6862745098039" y="714.0" type="line"/>
      <point x="538.6862745098039" y="249.0" type="line" smooth="yes"/>
      <point x="495.45098039215685" y="118.45098039215686"/>
      <point x="467.1764705882353" y="88.54901960784314"/>
      <point x="421.3137254901961" y="88.54901960784314" type="curve" smooth="yes"/>
      <point x="386.62745098039215" y="88.54901960784314"/>
      <point x="338.45098039215685" y="119.0392156862745"/>
      <point x="284.11764705882354" y="168.2156862745098" type="curve"/>
      <point x="463.7647058823529" y="714.0" type="line"/>
      <point x="124.45098039215686" y="714.0" type="line"/>
      <point x="94.05882352941177" y="622.4509803921569" type="line"/>
      <point x="320.98039215686276" y="622.4509803921569" type="line"/>
      <point x="191.66666666666666" y="224.921568627451" type="line"/>
      <point x="170.72549019607843" y="237.078431372549"/>
      <point x="136.19607843137254" y="246.078431372549"/>
      <point x="104.7843137254902" y="246.078431372549" type="curve" smooth="yes"/>
      <point x="30.764705882352942" y="246.078431372549"/>
      <point x="-34.549019607843135" y="200.37254901960785"/>
      <point x="-34.549019607843135" y="111.43137254901961" type="curve" smooth="yes"/>
      <point x="-34.549019607843135" y="22.254901960784313"/>
      <point x="34.745098039215684" y="-13.313725490196079"/>
      <point x="103.45098039215686" y="-13.313725490196079" type="curve" smooth="yes"/>
      <point x="171.19607843137254" y="-13.313725490196079"/>
      <point x="213.27450980392157" y="17.647058823529413"/>
      <point x="242.31372549019608" y="65.17647058823529" type="curve"/>
      <point x="290.94117647058823" y="25.490196078431374"/>
      <point x="351.9019607843137" y="-14.0"/>
    </contour>
    <contour>
      <point x="101.7843137254902" y="64.49019607843137" type="curve" smooth="yes"/>
      <point x="68.56862745098039" y="64.49019607843137"/>
      <point x="50.72549019607843" y="84.54901960784314"/>
      <point x="50.72549019607843" y="113.6078431372549" type="curve" smooth="yes"/>
      <point x="50.72549019607843" y="143.6078431372549"/>
      <point x="74.41176470588235" y="160.50980392156862"/>
      <point x="102.94117647058823" y="160.50980392156862" type="curve" smooth="yes"/>
      <point x="129.62745098039215" y="160.50980392156862"/>
      <point x="148.7843137254902" y="150.35294117647058"/>
      <point x="166.15686274509804" y="133.50980392156862" type="curve"/>
      <point x="158.68627450980392" y="110.62745098039215"/>
      <point x="142.05882352941177" y="64.49019607843137"/>
    </contour>
  </outline>
</glyph>
<glyph name="uni1B8F" format="2">
  <advance width="857.9803921568628"/>
  <unicode hex="1B8F"/>
  <outline>
    <contour>
      <point x="-22.372549019607842" y="0.0" type="line"/>
      <point x="326.4313725490196" y="0.0" type="line"/>
      <point x="417.54901960784315" y="279.7647058823529" type="line"/>
      <point x="512.6078431372549" y="0.0" type="line"/>
      <point x="622.1372549019608" y="0.0" type="line"/>
      <point x="476.98039215686276" y="414.7843137254902" type="line"/>
      <point x="360.62745098039215" y="414.7843137254902" type="line"/>
      <point x="247.49019607843138" y="92.17647058823529" type="line"/>
      <point x="119.66666666666667" y="92.17647058823529" type="line"/>
      <point x="296.03921568627453" y="622.4509803921569" type="line"/>
      <point x="432.3333333333333" y="622.4509803921569" type="line"/>
      <point x="461.62745098039215" y="714.0" type="line"/>
      <point x="212.62745098039215" y="714.0" type="line"/>
    </contour>
    <contour>
      <point x="703.5294117647059" y="0.0" type="line"/>
      <point x="811.1176470588235" y="0.0" type="line"/>
      <point x="665.9607843137255" y="414.7843137254902" type="line"/>
      <point x="556.3725490196078" y="414.7843137254902" type="line"/>
    </contour>
  </outline>
</glyph>
<glyph name="uni1B90" format="2">
  <advance width="848.6078431372549"/>
  <unicode hex="1B90"/>
  <outline>
    <contour>
      <point x="90.49019607843137" y="0.0" type="line"/>
      <point x="487.9019607843137" y="0.0" type="line"/>
      <point x="549.8039215686274" y="178.80392156862746" type="line" smooth="yes"/>
      <point x="559.0588235294117" y="205.88235294117646"/>
      <point x="571.5882352941177" y="246.9607843137255"/>
      <point x="618.2941176470588" y="246.9607843137255" type="curve" smooth="yes"/>
      <point x="650.2549019607843" y="246.9607843137255"/>
      <point x="659.9411764705883" y="231.05882352941177"/>
      <point x="659.9411764705883" y="210.2156862745098" type="curve" smooth="yes"/>
      <point x="659.9411764705883" y="191.2156862745098"/>
      <point x="651.9411764705883" y="167.58823529411765"/>
      <point x="646.6274509803922" y="149.80392156862746" type="curve" smooth="yes"/>
      <point x="599.7254901960785" y="0.0" type="line"/>
      <point x="708.7843137254902" y="0.0" type="line"/>
      <point x="766.4313725490196" y="178.41176470588235" type="line" smooth="yes"/>
      <point x="772.0588235294117" y="194.921568627451"/>
      <point x="774.686274509804" y="210.27450980392157"/>
      <point x="774.686274509804" y="225.15686274509804" type="curve" smooth="yes"/>
      <point x="774.686274509804" y="297.11764705882354"/>
      <point x="705.7058823529412" y="335.62745098039215"/>
      <point x="633.2352941176471" y="335.62745098039215" type="curve" smooth="yes"/>
      <point x="513.8039215686274" y="335.62745098039215"/>
      <point x="471.98039215686276" y="271.6862745098039"/>
      <point x="448.72549019607845" y="206.23529411764707" type="curve" smooth="yes"/>
      <point x="407.70588235294116" y="91.54901960784314" type="line"/>
      <point x="234.09803921568627" y="91.54901960784314" type="line"/>
      <point x="440.70588235294116" y="714.0" type="line"/>
      <point x="95.31372549019608" y="714.0" type="line"/>
      <point x="65.23529411764706" y="622.4509803921569" type="line"/>
      <point x="295.4117647058824" y="622.4509803921569" type="line"/>
    </contour>
  </outline>
</glyph>
<glyph name="uni1B91" format="2">
  <advance width="1076.3725490196077"/>
  <unicode hex="1B91"/>
  <outline>
    <contour>
      <point x="76.31372549019608" y="0.0" type="line"/>
      <point x="484.3529411764706" y="0.0" type="line"/>
      <point x="584.8627450980392" y="306.2156862745098" type="line"/>
      <point x="802.3921568627451" y="0.0" type="line"/>
      <point x="878.5098039215686" y="0.0" type="line"/>
      <point x="1116.5098039215686" y="714.0" type="line"/>
      <point x="618.2941176470588" y="714.0" type="line"/>
      <point x="573.0" y="578.0196078431372" type="line"/>
      <point x="682.4901960784314" y="578.0196078431372" type="line"/>
      <point x="698.4901960784314" y="624.0196078431372" type="line"/>
      <point x="976.0980392156863" y="624.0196078431372" type="line"/>
      <point x="816.6666666666666" y="152.2549019607843" type="line"/>
      <point x="589.3529411764706" y="474.0" type="line"/>
      <point x="531.2941176470588" y="474.0" type="line"/>
      <point x="403.52941176470586" y="91.54901960784314" type="line"/>
      <point x="217.19607843137254" y="91.54901960784314" type="line"/>
      <point x="422.96078431372547" y="714.0" type="line"/>
      <point x="95.88235294117646" y="714.0" type="line"/>
      <point x="65.6470588235294" y="622.4509803921569" type="line"/>
      <point x="282.078431372549" y="622.4509803921569" type="line"/>
    </contour>
  </outline>
</glyph>
<glyph name="uni1B92" format="2">
  <advance width="879.3529411764706"/>
  <unicode hex="1B92"/>
  <outline>
    <contour>
      <point x="29.862745098039216" y="0.0" type="line"/>
      <point x="408.6862745098039" y="0.0" type="line"/>
      <point x="554.6078431372549" y="444.45098039215685" type="line"/>
      <point x="730.7647058823529" y="444.45098039215685" type="line"/>
      <point x="585.843137254902" y="0.0" type="line"/>
      <point x="697.9607843137255" y="0.0" type="line"/>
      <point x="873.9607843137255" y="536.0" type="line"/>
      <point x="584.6862745098039" y="536.0" type="line"/>
      <point x="642.6862745098039" y="714.0" type="line"/>
      <point x="531.5686274509804" y="714.0" type="line"/>
      <point x="328.80392156862746" y="91.54901960784314" type="line"/>
      <point x="171.2156862745098" y="91.54901960784314" type="line"/>
      <point x="320.98039215686276" y="536.0" type="line"/>
      <point x="62.0" y="536.0" type="line"/>
      <point x="31.764705882352942" y="444.45098039215685" type="line"/>
      <point x="179.62745098039215" y="444.45098039215685" type="line"/>
    </contour>
  </outline>
</glyph>
<glyph name="uni1B93" format="2">
  <advance width="739.9215686274509"/>
  <unicode hex="1B93"/>
  <outline>
    <contour>
      <point x="-22.0" y="0.0" type="line"/>
      <point x="396.88235294117646" y="0.0" type="line"/>
      <point x="488.156862745098" y="279.7647058823529" type="line"/>
      <point x="582.3725490196078" y="0.0" type="line"/>
      <point x="693.0588235294117" y="0.0" type="line"/>
      <point x="548.7450980392157" y="414.7843137254902" type="line"/>
      <point x="430.3921568627451" y="414.7843137254902" type="line"/>
      <point x="317.2549019607843" y="92.17647058823529" type="line"/>
      <point x="119.19607843137254" y="92.17647058823529" type="line"/>
      <point x="293.88235294117646" y="622.4509803921569" type="line"/>
      <point x="508.6470588235294" y="622.4509803921569" type="line"/>
      <point x="537.9411764705883" y="714.0" type="line"/>
      <point x="214.0" y="714.0" type="line"/>
    </contour>
  </outline>
</glyph>
<glyph name="uni1B94" format="2">
  <advance width="728.6862745098039"/>
  <unicode hex="1B94"/>
  <outline>
    <contour>
      <point x="159.86274509803923" y="0.0" type="line"/>
      <point x="664.4117647058823" y="0.0" type="line"/>
      <point x="694.9607843137255" y="93.11764705882354" type="line"/>
      <point x="303.6862745098039" y="93.11764705882354" type="line"/>
      <point x="509.1372549019608" y="714.0" type="line"/>
      <point x="102.0" y="714.0" type="line"/>
      <point x="71.92156862745098" y="622.4509803921569" type="line"/>
      <point x="364.7843137254902" y="622.4509803921569" type="line"/>
    </contour>
  </outline>
</glyph>
<glyph name="uni1B95" format="2">
  <advance width="803.3529411764706"/>
  <unicode hex="1B95"/>
  <outline>
    <contour>
      <point x="89.07843137254902" y="0.0" type="line"/>
      <point x="606.6470588235294" y="0.0" type="line"/>
      <point x="842.6470588235294" y="714.0" type="line"/>
      <point x="507.4901960784314" y="714.0" type="line"/>
      <point x="477.2549019607843" y="622.4509803921569" type="line"/>
      <point x="699.8627450980392" y="622.4509803921569" type="line"/>
      <point x="525.3333333333334" y="92.17647058823529" type="line"/>
      <point x="230.86274509803923" y="92.17647058823529" type="line"/>
      <point x="436.62745098039215" y="714.0" type="line"/>
      <point x="102.09803921568627" y="714.0" type="line"/>
      <point x="71.86274509803921" y="622.4509803921569" type="line"/>
      <point x="293.843137254902" y="622.4509803921569" type="line"/>
    </contour>
  </outline>
</glyph>
<glyph name="uni1B96" format="2">
  <advance width="801.7843137254902"/>
  <unicode hex="1B96"/>
  <outline>
    <contour>
      <point x="87.50980392156863" y="0.0" type="line"/>
      <point x="605.0784313725491" y="0.0" type="line"/>
      <point x="841.0784313725491" y="714.0" type="line"/>
      <point x="731.0588235294117" y="714.0" type="line"/>
      <point x="523.7647058823529" y="92.17647058823529" type="line"/>
      <point x="229.2941176470588" y="92.17647058823529" type="line"/>
      <point x="435.05882352941177" y="714.0" type="line"/>
      <point x="100.52941176470588" y="714.0" type="line"/>
      <point x="70.29411764705883" y="622.4509803921569" type="line"/>
      <point x="292.27450980392155" y="622.4509803921569" type="line"/>
    </contour>
  </outline>
</glyph>
<glyph name="uni1B97" format="2">
  <advance width="689.3333333333334"/>
  <unicode hex="1B97"/>
  <outline>
    <contour>
      <point x="-23.254901960784313" y="0.0" type="line"/>
      <point x="492.62745098039215" y="0.0" type="line"/>
      <point x="728.6274509803922" y="714.0" type="line"/>
      <point x="618.6078431372549" y="714.0" type="line"/>
      <point x="411.3137254901961" y="92.17647058823529" type="line"/>
      <point x="116.0" y="92.17647058823529" type="line"/>
      <point x="321.7647058823529" y="714.0" type="line"/>
      <point x="211.58823529411765" y="714.0" type="line"/>
    </contour>
  </outline>
</glyph>
<glyph name="uni1B98" format="2">
  <advance width="977.0588235294117"/>
  <unicode hex="1B98"/>
  <outline>
    <contour>
      <point x="-23.254901960784313" y="0.0" type="line"/>
      <point x="384.7843137254902" y="0.0" type="line"/>
      <point x="485.29411764705884" y="306.2156862745098" type="line"/>
      <point x="702.8235294117648" y="0.0" type="line"/>
      <point x="778.9411764705883" y="0.0" type="line"/>
      <point x="1016.9411764705883" y="714.0" type="line"/>
      <point x="519.0392156862745" y="714.0" type="line"/>
      <point x="473.7450980392157" y="578.0196078431372" type="line"/>
      <point x="583.2352941176471" y="578.0196078431372" type="line"/>
      <point x="599.2352941176471" y="624.0196078431372" type="line"/>
      <point x="876.5294117647059" y="624.0196078431372" type="line"/>
      <point x="717.0980392156863" y="152.2549019607843" type="line"/>
      <point x="489.7843137254902" y="474.0" type="line"/>
      <point x="431.72549019607845" y="474.0" type="line"/>
      <point x="303.96078431372547" y="91.54901960784314" type="line"/>
      <point x="117.62745098039215" y="91.54901960784314" type="line"/>
      <point x="292.47058823529414" y="622.4509803921569" type="line"/>
      <point x="382.4901960784314" y="622.4509803921569" type="line"/>
      <point x="411.4117647058824" y="714.0" type="line"/>
      <point x="212.4313725490196" y="714.0" type="line"/>
    </contour>
  </outline>
</glyph>
<glyph name="uni1B99" format="2">
  <advance width="708.8823529411765"/>
  <unicode hex="1B99"/>
  <outline>
    <contour>
      <point x="71.37254901960785" y="0.0" type="line"/>
      <point x="513.1764705882352" y="0.0" type="line"/>
      <point x="748.1764705882352" y="714.0" type="line"/>
      <point x="100.37254901960785" y="714.0" type="line"/>
      <point x="70.29411764705883" y="622.4509803921569" type="line"/>
      <point x="603.5686274509804" y="622.4509803921569" type="line"/>
      <point x="429.03921568627453" y="92.01960784313725" type="line"/>
      <point x="215.19607843137254" y="92.01960784313725" type="line"/>
      <point x="323.27450980392155" y="414.2549019607843" type="line"/>
      <point x="70.84313725490196" y="414.2549019607843" type="line"/>
      <point x="40.6078431372549" y="322.8627450980392" type="line"/>
      <point x="178.6078431372549" y="322.8627450980392" type="line"/>
    </contour>
  </outline>
</glyph>
<glyph name="uni1B9A" format="2">
  <advance width="894.5686274509804"/>
  <unicode hex="1B9A"/>
  <outline>
    <contour>
      <point x="30.80392156862745" y="0.0" type="line"/>
      <point x="412.7647058823529" y="0.0" type="line"/>
      <point x="502.843137254902" y="274.54901960784315" type="line"/>
      <point x="601.0588235294117" y="0.0" type="line"/>
      <point x="713.1764705882352" y="0.0" type="line"/>
      <point x="889.1764705882352" y="536.0" type="line"/>
      <point x="778.0588235294117" y="536.0" type="line"/>
      <point x="650.6078431372549" y="149.49019607843138" type="line"/>
      <point x="553.2352941176471" y="428.5686274509804" type="line"/>
      <point x="646.7647058823529" y="714.0" type="line"/>
      <point x="535.6470588235294" y="714.0" type="line"/>
      <point x="332.72549019607845" y="91.54901960784314" type="line"/>
      <point x="171.52941176470588" y="91.54901960784314" type="line"/>
      <point x="321.45098039215685" y="536.0" type="line"/>
      <point x="62.94117647058823" y="536.0" type="line"/>
      <point x="31.764705882352942" y="441.47058823529414" type="line"/>
      <point x="179.62745098039215" y="441.47058823529414" type="line"/>
    </contour>
  </outline>
</glyph>
<glyph name="uni1B9B" format="2">
  <advance width="540.0196078431372"/>
  <unicode hex="1B9B"/>
  <outline>
    <contour>
      <point x="220.5686274509804" y="0.0" type="line"/>
      <point x="333.2156862745098" y="0.0" type="line"/>
      <point x="410.3529411764706" y="235.09803921568627" type="line"/>
      <point x="514.3529411764706" y="235.09803921568627" type="line"/>
      <point x="543.6470588235294" y="324.29411764705884" type="line"/>
      <point x="439.6470588235294" y="324.29411764705884" type="line"/>
      <point x="513.3333333333334" y="547.5098039215686" type="line"/>
      <point x="87.3921568627451" y="547.5098039215686" type="line"/>
      <point x="57.94117647058823" y="457.843137254902" type="line"/>
      <point x="372.2352941176471" y="457.843137254902" type="line"/>
      <point x="328.0" y="324.29411764705884" type="line"/>
      <point x="96.70588235294117" y="324.29411764705884" type="line"/>
      <point x="67.41176470588235" y="235.09803921568627" type="line"/>
      <point x="298.70588235294116" y="235.09803921568627" type="line"/>
    </contour>
    <contour>
      <point x="68.3529411764706" y="623.2352941176471" type="line"/>
      <point x="538.2941176470588" y="623.2352941176471" type="line"/>
      <point x="568.2156862745098" y="714.0" type="line"/>
      <point x="98.27450980392157" y="714.0" type="line"/>
    </contour>
  </outline>
</glyph>
<glyph name="uni1B9C" format="2">
  <advance width="819.3725490196078"/>
  <unicode hex="1B9C"/>
  <outline>
    <contour>
      <point x="-21.568627450980394" y="0.0" type="line"/>
      <point x="92.11764705882354" y="0.0" type="line"/>
      <point x="296.88235294117646" y="622.4509803921569" type="line"/>
      <point x="413.3137254901961" y="622.4509803921569" type="line"/>
      <point x="206.54901960784315" y="0.0" type="line"/>
      <point x="623.5098039215686" y="0.0" type="line"/>
      <point x="858.5098039215686" y="714.0" type="line"/>
      <point x="745.3921568627451" y="714.0" type="line"/>
      <point x="540.4705882352941" y="91.54901960784314" type="line"/>
      <point x="350.3137254901961" y="91.54901960784314" type="line"/>
      <point x="556.2352941176471" y="714.0" type="line"/>
      <point x="212.4313725490196" y="714.0" type="line"/>
    </contour>
  </outline>
</glyph>
<glyph name="uni1B9D" format="2">
  <advance width="694.6666666666666"/>
  <unicode hex="1B9D"/>
  <outline>
    <contour>
      <point x="-23.254901960784313" y="0.0" type="line"/>
      <point x="569.7450980392157" y="0.0" type="line"/>
      <point x="686.6274509803922" y="355.70588235294116" type="line"/>
      <point x="373.19607843137254" y="355.70588235294116" type="line"/>
      <point x="342.96078431372547" y="264.15686274509807" type="line"/>
      <point x="547.2352941176471" y="264.15686274509807" type="line"/>
      <point x="489.8235294117647" y="91.54901960784314" type="line"/>
      <point x="119.50980392156862" y="91.54901960784314" type="line"/>
      <point x="294.3529411764706" y="622.4509803921569" type="line"/>
      <point x="498.6078431372549" y="622.4509803921569" type="line"/>
      <point x="528.5294117647059" y="714.0" type="line"/>
      <point x="212.7450980392157" y="714.0" type="line"/>
    </contour>
  </outline>
</glyph>
<glyph name="uni1B9E" format="2">
  <advance width="806.8823529411765"/>
  <unicode hex="1B9E"/>
  <outline>
    <contour>
      <point x="494.11764705882354" y="0.0" type="line"/>
      <point x="605.2352941176471" y="0.0" type="line"/>
      <point x="707.0" y="305.45098039215685" type="line"/>
      <point x="819.7647058823529" y="305.45098039215685" type="line"/>
      <point x="850.0" y="397.0" type="line"/>
      <point x="737.2352941176471" y="397.0" type="line"/>
      <point x="843.2352941176471" y="714.0" type="line"/>
      <point x="508.1372549019608" y="714.0" type="line"/>
      <point x="477.9019607843137" y="622.4509803921569" type="line"/>
      <point x="703.8823529411765" y="622.4509803921569" type="line"/>
      <point x="627.1176470588235" y="397.0" type="line"/>
      <point x="506.88235294117646" y="397.0" type="line"/>
      <point x="476.6470588235294" y="305.45098039215685" type="line"/>
      <point x="596.8823529411765" y="305.45098039215685" type="line"/>
    </contour>
    <contour>
      <point x="84.15686274509804" y="0.0" type="line"/>
      <point x="195.27450980392157" y="0.0" type="line"/>
      <point x="297.03921568627453" y="305.45098039215685" type="line"/>
      <point x="409.80392156862746" y="305.45098039215685" type="line"/>
      <point x="440.03921568627453" y="397.0" type="line"/>
      <point x="327.27450980392155" y="397.0" type="line"/>
      <point x="433.27450980392155" y="714.0" type="line"/>
      <point x="97.86274509803921" y="714.0" type="line"/>
      <point x="67.62745098039215" y="622.4509803921569" type="line"/>
      <point x="293.921568627451" y="622.4509803921569" type="line"/>
      <point x="217.15686274509804" y="397.0" type="line"/>
      <point x="97.07843137254902" y="397.0" type="line"/>
      <point x="66.84313725490196" y="305.45098039215685" type="line"/>
      <point x="186.921568627451" y="305.45098039215685" type="line"/>
    </contour>
  </outline>
</glyph>
<glyph name="uni1B9F" format="2">
  <advance width="805.3137254901961"/>
  <unicode hex="1B9F"/>
  <outline>
    <contour>
      <point x="84.50980392156863" y="0.0" type="line"/>
      <point x="197.62745098039215" y="0.0" type="line"/>
      <point x="299.3921568627451" y="305.45098039215685" type="line"/>
      <point x="592.843137254902" y="305.45098039215685" type="line"/>
      <point x="490.078431372549" y="0.0" type="line"/>
      <point x="603.1960784313726" y="0.0" type="line"/>
      <point x="841.1960784313726" y="714.0" type="line"/>
      <point x="98.6470588235294" y="714.0" type="line"/>
      <point x="68.41176470588235" y="622.4509803921569" type="line"/>
      <point x="294.27450980392155" y="622.4509803921569" type="line"/>
      <point x="217.50980392156862" y="397.0" type="line"/>
      <point x="98.6470588235294" y="397.0" type="line"/>
      <point x="68.41176470588235" y="305.45098039215685" type="line"/>
      <point x="187.27450980392157" y="305.45098039215685" type="line"/>
    </contour>
    <contour>
      <point x="329.62745098039215" y="397.0" type="line"/>
      <point x="404.3921568627451" y="622.4509803921569" type="line"/>
      <point x="699.843137254902" y="622.4509803921569" type="line"/>
      <point x="623.0784313725491" y="397.0" type="line"/>
    </contour>
  </outline>
</glyph>
<glyph name="uni1BA0" format="2">
  <advance width="807.1764705882352"/>
  <unicode hex="1BA0"/>
  <outline>
    <contour>
      <point x="54.68627450980392" y="0.0" type="line"/>
      <point x="373.1372549019608" y="0.0" type="line"/>
      <point x="577.2156862745098" y="622.4509803921569" type="line"/>
      <point x="702.0784313725491" y="622.4509803921569" type="line"/>
      <point x="498.0" y="0.0" type="line"/>
      <point x="611.686274509804" y="0.0" type="line"/>
      <point x="845.686274509804" y="714.0" type="line"/>
      <point x="494.29411764705884" y="714.0" type="line"/>
      <point x="291.6862745098039" y="92.01960784313725" type="line"/>
      <point x="196.8235294117647" y="92.01960784313725" type="line"/>
      <point x="305.05882352941177" y="413.4117647058824" type="line"/>
      <point x="44.35294117647059" y="413.4117647058824" type="line"/>
      <point x="13.803921568627452" y="322.01960784313724" type="line"/>
      <point x="162.76470588235293" y="322.01960784313724" type="line"/>
    </contour>
  </outline>
</glyph>
<glyph name="uni1BA1" format="2">
  <advance width="229.2549019607843"/>
  <unicode hex="1BA1"/>
  <outline>
    <contour>
      <point x="-588.3529411764706" y="-243.98039215686273" type="line"/>
      <point x="-97.9607843137255" y="-243.98039215686273" type="line"/>
      <point x="57.666666666666664" y="227.2156862745098" type="line"/>
      <point x="112.66666666666667" y="227.2156862745098" type="line"/>
      <point x="83.3921568627451" y="137.3921568627451" type="line"/>
      <point x="151.66666666666666" y="137.3921568627451" type="line"/>
      <point x="200.98039215686273" y="289.4901960784314" type="line"/>
      <point x="0.4313725490196081" y="289.4901960784314" type="line"/>
      <point x="-153.66666666666666" y="-179.27450980392157" type="line"/>
      <point x="-499.5098039215686" y="-179.27450980392157" type="line"/>
      <point x="-482.19607843137254" y="-126.33333333333333" type="line"/>
      <point x="-550.4705882352941" y="-126.33333333333333" type="line"/>
    </contour>
  </outline>
</glyph>
<glyph name="uni1BA2" format="2">
  <unicode hex="1BA2"/>
  <outline>
    <contour>
      <point x="-126.47058823529412" y="-273.6666666666667" type="curve" smooth="yes"/>
      <point x="-53.470588235294116" y="-273.6666666666667"/>
      <point x="12.470588235294118" y="-241.88235294117646"/>
      <point x="12.470588235294118" y="-155.7843137254902" type="curve" smooth="yes"/>
      <point x="12.470588235294118" y="-106.84313725490196"/>
      <point x="-25.529411764705884" y="-55.68627450980392"/>
      <point x="-62.84313725490196" y="-24.372549019607842" type="curve"/>
      <point x="-109.98039215686275" y="-67.19607843137256" type="line"/>
      <point x="-84.50980392156863" y="-96.82352941176471"/>
      <point x="-57.76470588235294" y="-122.98039215686275"/>
      <point x="-57.76470588235294" y="-158.2549019607843" type="curve" smooth="yes"/>
      <point x="-57.76470588235294" y="-189.37254901960785"/>
      <point x="-80.98039215686275" y="-210.4313725490196"/>
      <point x="-128.15686274509804" y="-210.4313725490196" type="curve" smooth="yes"/>
      <point x="-219.0" y="-210.4313725490196"/>
      <point x="-345.52941176470586" y="-75.68627450980392"/>
      <point x="-396.52941176470586" y="-29.686274509803923" type="curve"/>
      <point x="-586.5686274509804" y="-124.7843137254902" type="line"/>
      <point x="-553.3725490196078" y="-189.54901960784315" type="line"/>
      <point x="-407.84313725490193" y="-115.17647058823529" type="line"/>
      <point x="-338.15686274509807" y="-177.01960784313727"/>
      <point x="-240.62745098039215" y="-273.6666666666667"/>
    </contour>
  </outline>
</glyph>
<glyph name="uni1BA3" format="2">
  <unicode hex="1BA3"/>
  <outline>
    <contour>
      <point x="-584.1372549019608" y="-248.0" type="line"/>
      <point x="-525.0" y="-248.0" type="line"/>
      <point x="-476.62745098039215" y="-99.72549019607843" type="line"/>
      <point x="-416.19607843137254" y="-99.72549019607843" type="line"/>
      <point x="-461.5686274509804" y="-240.0" type="line"/>
      <point x="-328.0" y="-240.0" type="line"/>
      <point x="-311.7450980392157" y="-191.23529411764707" type="line"/>
      <point x="-387.1764705882353" y="-191.23529411764707" type="line"/>
      <point x="-340.80392156862746" y="-50.96078431372549" type="line"/>
      <point x="-519.5098039215686" y="-50.96078431372549" type="line"/>
    </contour>
  </outline>
</glyph>
<glyph name="uni1BA4" format="2">
  <unicode hex="1BA4"/>
  <outline>
    <contour>
      <point x="-230.8235294117647" y="752.1176470588235" type="line"/>
      <point x="-146.84313725490196" y="971.2745098039215" type="line"/>
      <point x="-364.11764705882354" y="971.2745098039215" type="line"/>
      <point x="-364.11764705882354" y="918.5686274509804" type="line"/>
      <point x="-233.05882352941177" y="918.5686274509804" type="line"/>
      <point x="-269.05882352941177" y="828.1372549019608" type="line"/>
      <point x="-366.11764705882354" y="841.9803921568628" type="line"/>
      <point x="-376.52941176470586" y="790.5294117647059" type="line"/>
    </contour>
  </outline>
</glyph>
<glyph name="uni1BA5" format="2">
  <unicode hex="1BA5"/>
  <outline>
    <contour>
      <point x="-484.7647058823529" y="-248.0" type="line"/>
      <point x="-424.0" y="-248.0" type="line"/>
      <point x="-346.2156862745098" y="-50.96078431372549" type="line"/>
      <point x="-540.5098039215686" y="-50.96078431372549" type="line"/>
      <point x="-540.5098039215686" y="-102.56862745098039" type="line"/>
      <point x="-428.3921568627451" y="-102.56862745098039" type="line"/>
    </contour>
  </outline>
</glyph>
<glyph name="uni1BA6" format="2">
  <advance width="375.0"/>
  <unicode hex="1BA6"/>
  <outline>
    <contour>
      <point x="22.431372549019606" y="0.0" type="line"/>
      <point x="293.5686274509804" y="0.0" type="line"/>
      <point x="316.8235294117647" y="71.76470588235294" type="line"/>
      <point x="129.86274509803923" y="71.76470588235294" type="line"/>
      <point x="165.76470588235293" y="153.0392156862745" type="line"/>
      <point x="270.921568627451" y="153.0392156862745" type="line"/>
      <point x="289.1764705882353" y="210.64705882352942" type="line"/>
      <point x="191.33333333333334" y="210.64705882352942" type="line"/>
      <point x="257.3333333333333" y="361.80392156862746" type="line"/>
      <point x="10.196078431372548" y="361.80392156862746" type="line"/>
      <point x="-13.058823529411764" y="290.03921568627453" type="line"/>
      <point x="152.05882352941177" y="290.03921568627453" type="line"/>
    </contour>
  </outline>
</glyph>
<glyph name="uni1BA7" format="2">
  <advance width="375.0"/>
  <unicode hex="1BA7"/>
  <outline>
    <contour>
      <point x="33.431372549019606" y="0.0" type="line"/>
      <point x="304.4117647058824" y="0.0" type="line"/>
      <point x="327.6666666666667" y="71.76470588235294" type="line"/>
      <point x="140.7058823529412" y="71.76470588235294" type="line"/>
      <point x="268.3333333333333" y="361.80392156862746" type="line"/>
      <point x="21.352941176470587" y="361.80392156862746" type="line"/>
      <point x="-1.9019607843137254" y="290.03921568627453" type="line"/>
      <point x="163.05882352941177" y="290.03921568627453" type="line"/>
      <point x="126.7843137254902" y="210.64705882352942" type="line"/>
      <point x="22.88235294117647" y="210.64705882352942" type="line"/>
      <point x="4.627450980392156" y="153.0392156862745" type="line"/>
      <point x="101.05882352941177" y="153.0392156862745" type="line"/>
    </contour>
  </outline>
</glyph>
<glyph name="uni1BA8" format="2">
  <unicode hex="1BA8"/>
  <outline>
    <contour>
      <point x="-265.70588235294116" y="756.0" type="line"/>
      <point x="-213.4313725490196" y="756.0" type="line"/>
      <point x="-86.86274509803921" y="960.4901960784314" type="line"/>
      <point x="-162.5686274509804" y="960.4901960784314" type="line"/>
      <point x="-239.5686274509804" y="830.2941176470588" type="line"/>
      <point x="-316.5686274509804" y="960.4901960784314" type="line"/>
      <point x="-392.27450980392155" y="960.4901960784314" type="line"/>
    </contour>
  </outline>
</glyph>
<glyph name="uni1BA9" format="2">
  <unicode hex="1BA9"/>
  <outline>
    <contour>
      <point x="-265.70588235294116" y="756.0" type="line"/>
      <point x="-213.4313725490196" y="756.0" type="line"/>
      <point x="-86.86274509803921" y="960.4901960784314" type="line"/>
      <point x="-162.5686274509804" y="960.4901960784314" type="line"/>
      <point x="-239.5686274509804" y="830.2941176470588" type="line"/>
      <point x="-256.4117647058824" y="859.4509803921569" type="line"/>
      <point x="-195.41176470588235" y="960.4901960784314" type="line"/>
      <point x="-248.92156862745097" y="960.4901960784314" type="line"/>
      <point x="-282.6666666666667" y="903.4313725490196" type="line"/>
      <point x="-316.5686274509804" y="960.4901960784314" type="line"/>
      <point x="-392.27450980392155" y="960.4901960784314" type="line"/>
    </contour>
  </outline>
</glyph>
<glyph name="uni1BAA" format="2">
  <advance width="268.078431372549"/>
  <unicode hex="1BAA"/>
  <outline>
    <contour>
      <point x="110.13725490196079" y="-131.078431372549" type="curve" smooth="yes"/>
      <point x="144.1764705882353" y="-131.078431372549"/>
      <point x="191.49019607843138" y="-121.98039215686275"/>
      <point x="221.7450980392157" y="-102.66666666666667" type="curve"/>
      <point x="203.9607843137255" y="-53.0" type="line"/>
      <point x="190.7058823529412" y="-60.627450980392155"/>
      <point x="157.3921568627451" y="-77.15686274509804"/>
      <point x="116.49019607843137" y="-77.15686274509804" type="curve" smooth="yes"/>
      <point x="83.43137254901961" y="-77.15686274509804"/>
      <point x="72.80392156862744" y="-67.09803921568627"/>
      <point x="72.80392156862744" y="-53.254901960784316" type="curve" smooth="yes"/>
      <point x="72.80392156862744" y="-33.568627450980394"/>
      <point x="110.49019607843137" y="-9.411764705882353"/>
      <point x="146.58823529411765" y="22.745098039215687" type="curve" smooth="yes"/>
      <point x="177.2156862745098" y="50.431372549019606"/>
      <point x="210.90196078431373" y="74.31372549019608"/>
      <point x="210.90196078431373" y="126.52941176470588" type="curve" smooth="yes"/>
      <point x="210.90196078431373" y="186.31372549019608"/>
      <point x="163.7058823529412" y="215.0"/>
      <point x="96.62745098039215" y="222.0" type="curve"/>
      <point x="195.15686274509804" y="307.05882352941177" type="line"/>
      <point x="195.15686274509804" y="332.1372549019608" type="line"/>
      <point x="-2.9607843137254903" y="332.1372549019608" type="line"/>
      <point x="-20.0" y="281.96078431372547" type="line"/>
      <point x="79.31372549019608" y="281.96078431372547" type="line"/>
      <point x="-2.215686274509804" y="212.68627450980392" type="line"/>
      <point x="-12.313725490196079" y="181.54901960784315" type="line"/>
      <point x="14.03921568627451" y="181.54901960784315" type="line" smooth="yes"/>
      <point x="98.9607843137255" y="181.54901960784315"/>
      <point x="143.66666666666666" y="168.3921568627451"/>
      <point x="143.66666666666666" y="126.37254901960785" type="curve" smooth="yes"/>
      <point x="143.66666666666666" y="99.47058823529412"/>
      <point x="111.29411764705883" y="72.25490196078431"/>
      <point x="76.66666666666667" y="43.09803921568628" type="curve" smooth="yes"/>
      <point x="38.94117647058823" y="11.156862745098039"/>
      <point x="2.4705882352941178" y="-19.313725490196077"/>
      <point x="2.4705882352941178" y="-60.03921568627451" type="curve" smooth="yes"/>
      <point x="2.4705882352941178" y="-114.92156862745098"/>
      <point x="52.98039215686275" y="-131.078431372549"/>
    </contour>
  </outline>
</glyph>
<glyph name="uni1BAB" format="2">
  <unicode hex="1BAB"/>
  <outline>
    <contour>
      <point x="117.43137254901961" y="252.52941176470588" type="line"/>
      <point x="151.5686274509804" y="252.52941176470588" type="line"/>
      <point x="151.5686274509804" y="316.4313725490196" type="line"/>
      <point x="215.47058823529412" y="316.4313725490196" type="line"/>
      <point x="215.47058823529412" y="350.5686274509804" type="line"/>
      <point x="151.5686274509804" y="350.5686274509804" type="line"/>
      <point x="151.5686274509804" y="414.47058823529414" type="line"/>
      <point x="117.43137254901961" y="414.47058823529414" type="line"/>
      <point x="117.43137254901961" y="350.5686274509804" type="line"/>
      <point x="53.529411764705884" y="350.5686274509804" type="line"/>
      <point x="53.529411764705884" y="316.4313725490196" type="line"/>
      <point x="117.43137254901961" y="316.4313725490196" type="line"/>
    </contour>
  </outline>
</glyph>
<glyph name="uni1BAC" format="2">
  <unicode hex="1BAC"/>
  <outline>
    <contour>
      <point x="-490.2549019607843" y="-272.5686274509804" type="curve" smooth="yes"/>
      <point x="-338.3137254901961" y="-272.5686274509804"/>
      <point x="-265.6862745098039" y="-163.47058823529412"/>
      <point x="-265.6862745098039" y="-49.21568627450981" type="curve" smooth="yes"/>
      <point x="-265.6862745098039" y="-37.431372549019606" type="line"/>
      <point x="-330.3921568627451" y="-37.431372549019606" type="line"/>
      <point x="-330.3921568627451" y="-51.21568627450981" type="line" smooth="yes"/>
      <point x="-330.3921568627451" y="-110.74509803921569"/>
      <point x="-367.3921568627451" y="-209.33333333333334"/>
      <point x="-492.2549019607843" y="-209.33333333333334" type="curve" smooth="yes"/>
      <point x="-569.5294117647059" y="-209.33333333333334"/>
      <point x="-605.5882352941177" y="-184.27450980392157"/>
      <point x="-605.5882352941177" y="-144.0" type="curve" smooth="yes"/>
      <point x="-605.5882352941177" y="-100.19607843137256"/>
      <point x="-563.6274509803922" y="-82.56862745098039"/>
      <point x="-510.2549019607843" y="-82.56862745098039" type="curve" smooth="yes"/>
      <point x="-487.2549019607843" y="-82.56862745098039"/>
      <point x="-463.2549019607843" y="-83.56862745098039"/>
      <point x="-451.2549019607843" y="-84.56862745098039" type="curve"/>
      <point x="-451.2549019607843" y="-30.431372549019606" type="line"/>
      <point x="-460.2549019607843" y="-28.431372549019606"/>
      <point x="-482.2549019607843" y="-26.431372549019606"/>
      <point x="-510.2549019607843" y="-26.431372549019606" type="curve" smooth="yes"/>
      <point x="-596.3529411764706" y="-26.431372549019606"/>
      <point x="-676.1372549019608" y="-67.90196078431373"/>
      <point x="-676.1372549019608" y="-144.0" type="curve" smooth="yes"/>
      <point x="-676.1372549019608" y="-225.19607843137254"/>
      <point x="-595.1960784313726" y="-272.5686274509804"/>
    </contour>
  </outline>
</glyph>
<glyph name="uni1BAD" format="2">
  <unicode hex="1BAD"/>
  <outline>
    <contour>
      <point x="-400.84313725490193" y="-249.09803921568627" type="line"/>
      <point x="-205.64705882352942" y="-249.09803921568627" type="line"/>
      <point x="-205.64705882352942" y="-201.54901960784315" type="line"/>
      <point x="-323.0980392156863" y="-201.54901960784315" type="line"/>
      <point x="-256.88235294117646" y="-51.431372549019606" type="line"/>
      <point x="-452.3921568627451" y="-51.431372549019606" type="line"/>
      <point x="-452.3921568627451" y="-98.98039215686275" type="line"/>
      <point x="-334.62745098039215" y="-98.98039215686275" type="line"/>
    </contour>
    <contour>
      <point x="-612.8235294117648" y="-249.09803921568627" type="line"/>
      <point x="-417.62745098039215" y="-249.09803921568627" type="line"/>
      <point x="-417.62745098039215" y="-201.54901960784315" type="line"/>
      <point x="-535.0784313725491" y="-201.54901960784315" type="line"/>
      <point x="-468.8627450980392" y="-51.431372549019606" type="line"/>
      <point x="-664.3725490196078" y="-51.431372549019606" type="line"/>
      <point x="-664.3725490196078" y="-98.98039215686275" type="line"/>
      <point x="-546.6078431372549" y="-98.98039215686275" type="line"/>
    </contour>
  </outline>
</glyph>
<glyph name="uni1BAE" format="2">
  <advance width="1426.549019607843"/>
  <unicode hex="1BAE"/>
  <outline>
    <contour>
      <point x="84.62745098039215" y="0.0" type="line"/>
      <point x="195.27450980392157" y="0.0" type="line"/>
      <point x="403.03921568627453" y="622.4509803921569" type="line"/>
      <point x="654.5294117647059" y="622.4509803921569" type="line"/>
      <point x="448.98039215686276" y="0.0" type="line"/>
      <point x="559.6274509803922" y="0.0" type="line"/>
      <point x="666.1764705882352" y="322.01960784313724" type="line"/>
      <point x="781.8235294117648" y="322.01960784313724" type="line"/>
      <point x="673.7450980392157" y="0.0" type="line"/>
      <point x="992.1960784313726" y="0.0" type="line"/>
      <point x="1196.2745098039215" y="622.4509803921569" type="line"/>
      <point x="1321.137254901961" y="622.4509803921569" type="line"/>
      <point x="1117.0588235294117" y="0.0" type="line"/>
      <point x="1230.7450980392157" y="0.0" type="line"/>
      <point x="1464.7450980392157" y="714.0" type="line"/>
      <point x="1113.3529411764705" y="714.0" type="line"/>
      <point x="910.7450980392157" y="92.01960784313725" type="line"/>
      <point x="815.4117647058823" y="92.01960784313725" type="line"/>
      <point x="922.8627450980392" y="413.4117647058824" type="line"/>
      <point x="696.2549019607843" y="413.4117647058824" type="line"/>
      <point x="795.9411764705883" y="714.0" type="line"/>
      <point x="103.29411764705883" y="714.0" type="line"/>
      <point x="73.05882352941177" y="622.4509803921569" type="line"/>
      <point x="290.1764705882353" y="622.4509803921569" type="line"/>
    </contour>
  </outline>
</glyph>
<glyph name="uni1BAF" format="2">
  <advance width="1675.7058823529412"/>
  <unicode hex="1BAF"/>
  <outline>
    <contour>
      <point x="86.19607843137256" y="0.0" type="line"/>
      <point x="197.62745098039215" y="0.0" type="line"/>
      <point x="299.3921568627451" y="305.45098039215685" type="line"/>
      <point x="553.5686274509804" y="305.45098039215685" type="line"/>
      <point x="450.80392156862746" y="0.0" type="line"/>
      <point x="562.2352941176471" y="0.0" type="line"/>
      <point x="664.156862745098" y="305.45098039215685" type="line"/>
      <point x="915.7058823529412" y="305.45098039215685" type="line"/>
      <point x="812.7843137254902" y="0.0" type="line"/>
      <point x="1194.7450980392157" y="0.0" type="line"/>
      <point x="1284.8235294117646" y="274.54901960784315" type="line"/>
      <point x="1383.0392156862745" y="0.0" type="line"/>
      <point x="1495.1568627450981" y="0.0" type="line"/>
      <point x="1671.1568627450981" y="536.0" type="line"/>
      <point x="1560.0392156862745" y="536.0" type="line"/>
      <point x="1432.5882352941176" y="149.49019607843138" type="line"/>
      <point x="1335.2156862745098" y="428.5686274509804" type="line"/>
      <point x="1428.7450980392157" y="714.0" type="line"/>
      <point x="1317.6274509803923" y="714.0" type="line"/>
      <point x="1114.7058823529412" y="91.54901960784314" type="line"/>
      <point x="953.5098039215686" y="91.54901960784314" type="line"/>
      <point x="1056.4313725490197" y="397.0" type="line"/>
      <point x="694.3921568627451" y="397.0" type="line"/>
      <point x="800.2352941176471" y="714.0" type="line"/>
      <point x="98.6470588235294" y="714.0" type="line"/>
      <point x="68.41176470588235" y="622.4509803921569" type="line"/>
      <point x="295.96078431372547" y="622.4509803921569" type="line"/>
      <point x="219.19607843137254" y="397.0" type="line"/>
      <point x="98.6470588235294" y="397.0" type="line"/>
      <point x="68.41176470588235" y="305.45098039215685" type="line"/>
      <point x="188.9607843137255" y="305.45098039215685" type="line"/>
    </contour>
    <contour>
      <point x="329.62745098039215" y="397.0" type="line"/>
      <point x="404.3921568627451" y="622.4509803921569" type="line"/>
      <point x="660.5686274509804" y="622.4509803921569" type="line"/>
      <point x="583.8039215686274" y="397.0" type="line"/>
    </contour>
  </outline>
</glyph>
<glyph name="uni1BB0" format="2">
  <advance width="828.0"/>
  <unicode hex="1BB0"/>
  <outline>
    <contour>
      <point x="419.0" y="-2.0" type="curve" smooth="yes"/>
      <point x="617.0" y="-2.0"/>
      <point x="778.0" y="159.0"/>
      <point x="778.0" y="357.0" type="curve" smooth="yes"/>
      <point x="778.0" y="555.0"/>
      <point x="617.0" y="716.0"/>
      <point x="419.0" y="716.0" type="curve" smooth="yes"/>
      <point x="221.0" y="716.0"/>
      <point x="60.0" y="555.0"/>
      <point x="60.0" y="357.0" type="curve" smooth="yes"/>
      <point x="60.0" y="159.0"/>
      <point x="221.0" y="-2.0"/>
    </contour>
    <contour>
      <point x="419.0" y="97.52941176470588" type="curve" smooth="yes"/>
      <point x="276.078431372549" y="97.52941176470588"/>
      <point x="159.52941176470588" y="214.078431372549"/>
      <point x="159.52941176470588" y="357.0" type="curve" smooth="yes"/>
      <point x="159.52941176470588" y="498.921568627451"/>
      <point x="276.078431372549" y="616.4705882352941"/>
      <point x="419.0" y="616.4705882352941" type="curve" smooth="yes"/>
      <point x="560.9215686274509" y="616.4705882352941"/>
      <point x="678.4705882352941" y="498.921568627451"/>
      <point x="678.4705882352941" y="357.0" type="curve" smooth="yes"/>
      <point x="678.4705882352941" y="214.078431372549"/>
      <point x="560.9215686274509" y="97.52941176470588"/>
    </contour>
  </outline>
</glyph>
<glyph name="uni1BB1" format="2">
  <advance width="804.8039215686274"/>
  <unicode hex="1BB1"/>
  <outline>
    <contour>
      <point x="87.86274509803921" y="0.0" type="line"/>
      <point x="638.1372549019608" y="0.0" type="line"/>
      <point x="754.3333333333334" y="356.4901960784314" type="line"/>
      <point x="462.3333333333333" y="356.4901960784314" type="line"/>
      <point x="413.29411764705884" y="209.11764705882354" type="line"/>
      <point x="511.88235294117646" y="209.11764705882354" type="line"/>
      <point x="533.0" y="265.5686274509804" type="line"/>
      <point x="616.2941176470588" y="265.5686274509804" type="line"/>
      <point x="559.9411764705883" y="91.54901960784314" type="line"/>
      <point x="230.05882352941177" y="91.54901960784314" type="line"/>
      <point x="405.7450980392157" y="622.4509803921569" type="line"/>
      <point x="557.0588235294117" y="622.4509803921569" type="line"/>
      <point x="578.5882352941177" y="563.6470588235294" type="line"/>
      <point x="685.4509803921569" y="563.6470588235294" type="line"/>
      <point x="634.156862745098" y="714.0" type="line"/>
      <point x="117.66666666666667" y="714.0" type="line"/>
      <point x="67.74509803921569" y="561.4509803921569" type="line"/>
      <point x="168.15686274509804" y="561.4509803921569" type="line"/>
      <point x="188.15686274509804" y="622.4509803921569" type="line"/>
      <point x="293.7843137254902" y="622.4509803921569" type="line"/>
    </contour>
  </outline>
</glyph>
<glyph name="uni1BB2" format="2">
  <advance width="723.9019607843137"/>
  <unicode hex="1BB2"/>
  <outline>
    <contour>
      <point x="92.37254901960785" y="0.0" type="line"/>
      <point x="602.6274509803922" y="0.0" type="line"/>
      <point x="680.8823529411765" y="240.3921568627451" type="line"/>
      <point x="573.0784313725491" y="240.3921568627451" type="line"/>
      <point x="525.0588235294117" y="91.54901960784314" type="line"/>
      <point x="234.47058823529412" y="91.54901960784314" type="line"/>
      <point x="292.03921568627453" y="265.4117647058824" type="line"/>
      <point x="469.7450980392157" y="265.4117647058824" type="line"/>
      <point x="499.98039215686276" y="356.96078431372547" type="line"/>
      <point x="322.27450980392155" y="356.96078431372547" type="line"/>
      <point x="440.2352941176471" y="714.0" type="line"/>
      <point x="118.13725490196079" y="714.0" type="line"/>
      <point x="68.05882352941177" y="561.4509803921569" type="line"/>
      <point x="168.47058823529412" y="561.4509803921569" type="line"/>
      <point x="188.47058823529412" y="622.4509803921569" type="line"/>
      <point x="297.29411764705884" y="622.4509803921569" type="line"/>
    </contour>
  </outline>
</glyph>
<glyph name="uni1BB3" format="2">
  <advance width="772.843137254902"/>
  <unicode hex="1BB3"/>
  <outline>
    <contour>
      <point x="89.33333333333333" y="0.0" type="line"/>
      <point x="667.2352941176471" y="0.0" type="line"/>
      <point x="687.9019607843137" y="61.05882352941177" type="line"/>
      <point x="564.313725490196" y="170.80392156862746" type="line" smooth="yes"/>
      <point x="542.0784313725491" y="190.09803921568627"/>
      <point x="509.6078431372549" y="218.5686274509804"/>
      <point x="509.6078431372549" y="236.47058823529412" type="curve" smooth="yes"/>
      <point x="509.6078431372549" y="250.52941176470588"/>
      <point x="515.7647058823529" y="269.4901960784314"/>
      <point x="554.7647058823529" y="269.4901960784314" type="curve" smooth="yes"/>
      <point x="744.5686274509804" y="269.4901960784314" type="line"/>
      <point x="774.6470588235294" y="360.4117647058824" type="line"/>
      <point x="546.3921568627451" y="360.4117647058824" type="line" smooth="yes"/>
      <point x="442.80392156862746" y="360.4117647058824"/>
      <point x="402.078431372549" y="309.3137254901961"/>
      <point x="402.078431372549" y="245.58823529411765" type="curve" smooth="yes"/>
      <point x="402.078431372549" y="203.15686274509804"/>
      <point x="431.19607843137254" y="166.2549019607843"/>
      <point x="458.72549019607845" y="141.62745098039215" type="curve" smooth="yes"/>
      <point x="514.8627450980392" y="90.76470588235294" type="line"/>
      <point x="233.47058823529412" y="90.76470588235294" type="line"/>
      <point x="439.54901960784315" y="714.0" type="line"/>
      <point x="117.29411764705883" y="714.0" type="line"/>
      <point x="67.37254901960785" y="561.4509803921569" type="line"/>
      <point x="167.7843137254902" y="561.4509803921569" type="line"/>
      <point x="187.7843137254902" y="622.4509803921569" type="line"/>
      <point x="294.2549019607843" y="622.4509803921569" type="line"/>
    </contour>
  </outline>
</glyph>
<glyph name="uni1BB4" format="2">
  <advance width="553.8235294117648"/>
  <unicode hex="1BB4"/>
  <outline>
    <contour>
      <point x="140.92156862745097" y="0.0" type="line"/>
      <point x="251.0392156862745" y="0.0" type="line"/>
      <point x="348.11764705882354" y="291.078431372549" type="line"/>
      <point x="532.8235294117648" y="291.078431372549" type="line"/>
      <point x="576.9019607843137" y="426.62745098039215" type="line"/>
      <point x="478.05882352941177" y="426.62745098039215" type="line"/>
      <point x="464.05882352941177" y="382.62745098039215" type="line"/>
      <point x="378.19607843137254" y="382.62745098039215" type="line"/>
      <point x="489.03921568627453" y="714.0" type="line"/>
      <point x="119.92156862745098" y="714.0" type="line"/>
      <point x="70.15686274509804" y="561.4509803921569" type="line"/>
      <point x="170.5686274509804" y="561.4509803921569" type="line"/>
      <point x="190.5686274509804" y="622.4509803921569" type="line"/>
      <point x="348.15686274509807" y="622.4509803921569" type="line"/>
      <point x="268.078431372549" y="382.62745098039215" type="line"/>
      <point x="84.37254901960785" y="382.62745098039215" type="line"/>
      <point x="40.294117647058826" y="247.078431372549" type="line"/>
      <point x="138.98039215686273" y="247.078431372549" type="line"/>
      <point x="152.98039215686273" y="291.078431372549" type="line"/>
      <point x="237.0" y="291.078431372549" type="line"/>
    </contour>
  </outline>
</glyph>
<glyph name="uni1BB5" format="2">
  <advance width="896.1176470588235"/>
  <unicode hex="1BB5"/>
  <outline>
    <contour>
      <point x="69.37254901960785" y="0.0" type="line"/>
      <point x="851.6274509803922" y="0.0" type="line"/>
      <point x="646.7058823529412" y="622.4509803921569" type="line"/>
      <point x="719.2745098039215" y="622.4509803921569" type="line"/>
      <point x="739.2745098039215" y="561.4509803921569" type="line"/>
      <point x="839.686274509804" y="561.4509803921569" type="line"/>
      <point x="790.6078431372549" y="714.0" type="line"/>
      <point x="506.29411764705884" y="714.0" type="line"/>
      <point x="711.0588235294117" y="91.86274509803921" type="line"/>
      <point x="209.94117647058823" y="91.86274509803921" type="line"/>
      <point x="414.70588235294116" y="714.0" type="line"/>
      <point x="130.3921568627451" y="714.0" type="line"/>
      <point x="81.31372549019608" y="561.4509803921569" type="line"/>
      <point x="181.72549019607843" y="561.4509803921569" type="line"/>
      <point x="201.72549019607843" y="622.4509803921569" type="line"/>
      <point x="274.29411764705884" y="622.4509803921569" type="line"/>
    </contour>
  </outline>
</glyph>
<glyph name="uni1BB6" format="2">
  <advance width="671.7843137254902"/>
  <unicode hex="1BB6"/>
  <outline>
    <contour>
      <point x="-23.254901960784313" y="0.0" type="line"/>
      <point x="554.4901960784314" y="0.0" type="line"/>
      <point x="575.156862745098" y="61.05882352941177" type="line"/>
      <point x="451.5686274509804" y="170.80392156862746" type="line" smooth="yes"/>
      <point x="429.3333333333333" y="190.09803921568627"/>
      <point x="396.8627450980392" y="218.5686274509804"/>
      <point x="396.8627450980392" y="236.47058823529412" type="curve" smooth="yes"/>
      <point x="396.8627450980392" y="250.52941176470588"/>
      <point x="403.01960784313724" y="269.4901960784314"/>
      <point x="442.01960784313724" y="269.4901960784314" type="curve" smooth="yes"/>
      <point x="631.8235294117648" y="269.4901960784314" type="line"/>
      <point x="661.9019607843137" y="360.4117647058824" type="line"/>
      <point x="433.6470588235294" y="360.4117647058824" type="line" smooth="yes"/>
      <point x="330.05882352941177" y="360.4117647058824"/>
      <point x="289.3333333333333" y="309.3137254901961"/>
      <point x="289.3333333333333" y="245.58823529411765" type="curve" smooth="yes"/>
      <point x="289.3333333333333" y="203.15686274509804"/>
      <point x="318.45098039215685" y="166.2549019607843"/>
      <point x="345.98039215686276" y="141.62745098039215" type="curve" smooth="yes"/>
      <point x="402.11764705882354" y="90.76470588235294" type="line"/>
      <point x="119.0392156862745" y="90.76470588235294" type="line"/>
      <point x="294.88235294117646" y="622.4509803921569" type="line"/>
      <point x="374.88235294117646" y="622.4509803921569" type="line"/>
      <point x="393.88235294117646" y="575.4509803921569" type="line"/>
      <point x="498.2156862745098" y="575.4509803921569" type="line"/>
      <point x="452.8235294117647" y="714.0" type="line"/>
      <point x="211.7450980392157" y="714.0" type="line"/>
    </contour>
  </outline>
</glyph>
<glyph name="uni1BB7" format="2">
  <advance width="781.2156862745098"/>
  <unicode hex="1BB7"/>
  <outline>
    <contour>
      <point x="-80.56862745098039" y="0.0" type="line"/>
      <point x="110.33333333333333" y="0.0" type="line"/>
      <point x="315.2549019607843" y="622.4509803921569" type="line"/>
      <point x="418.3137254901961" y="622.4509803921569" type="line"/>
      <point x="211.3921568627451" y="0.0" type="line"/>
      <point x="556.5098039215686" y="0.0" type="line"/>
      <point x="761.2745098039215" y="622.4509803921569" type="line"/>
      <point x="839.2745098039215" y="622.4509803921569" type="line"/>
      <point x="869.5098039215686" y="714.0" type="line"/>
      <point x="676.5098039215686" y="714.0" type="line"/>
      <point x="472.05882352941177" y="92.01960784313725" type="line"/>
      <point x="355.62745098039215" y="92.01960784313725" type="line"/>
      <point x="561.0784313725491" y="714.0" type="line"/>
      <point x="230.80392156862746" y="714.0" type="line"/>
      <point x="27.352941176470587" y="92.01960784313725" type="line"/>
      <point x="-50.64705882352941" y="92.01960784313725" type="line"/>
    </contour>
  </outline>
</glyph>
<glyph name="uni1BB8" format="2">
  <advance width="818.8039215686274"/>
  <unicode hex="1BB8"/>
  <outline>
    <contour>
      <point x="396.72549019607845" y="-14.0" type="curve" smooth="yes"/>
      <point x="502.01960784313724" y="-14.0"/>
      <point x="536.0588235294117" y="45.8235294117647"/>
      <point x="582.7843137254902" y="187.0" type="curve" smooth="yes"/>
      <point x="726.7058823529412" y="622.6078431372549" type="line"/>
      <point x="771.6274509803922" y="622.6078431372549" type="line"/>
      <point x="798.6274509803922" y="551.6078431372549" type="line"/>
      <point x="901.3921568627451" y="551.6078431372549" type="line"/>
      <point x="848.0" y="714.0" type="line"/>
      <point x="645.6666666666666" y="714.0" type="line"/>
      <point x="491.6666666666667" y="249.0" type="line" smooth="yes"/>
      <point x="448.4313725490196" y="118.6078431372549"/>
      <point x="446.1764705882353" y="88.54901960784314"/>
      <point x="396.5686274509804" y="88.54901960784314" type="curve" smooth="yes"/>
      <point x="358.70588235294116" y="88.54901960784314"/>
      <point x="318.156862745098" y="146.86274509803923"/>
      <point x="302.3921568627451" y="165.68627450980392" type="curve"/>
      <point x="482.88235294117646" y="714.0" type="line"/>
      <point x="145.2549019607843" y="714.0" type="line"/>
      <point x="96.17647058823529" y="561.4509803921569" type="line"/>
      <point x="195.1764705882353" y="561.4509803921569" type="line"/>
      <point x="215.1764705882353" y="622.4509803921569" type="line"/>
      <point x="342.62745098039215" y="622.4509803921569" type="line"/>
      <point x="212.47058823529412" y="224.078431372549" type="line"/>
      <point x="191.52941176470588" y="236.23529411764707"/>
      <point x="154.47058823529412" y="246.078431372549"/>
      <point x="123.05882352941177" y="246.078431372549" type="curve" smooth="yes"/>
      <point x="49.03921568627451" y="246.078431372549"/>
      <point x="-16.274509803921568" y="200.37254901960785"/>
      <point x="-16.274509803921568" y="111.43137254901961" type="curve" smooth="yes"/>
      <point x="-16.274509803921568" y="22.254901960784313"/>
      <point x="53.01960784313725" y="-13.313725490196079"/>
      <point x="121.72549019607843" y="-13.313725490196079" type="curve" smooth="yes"/>
      <point x="189.47058823529412" y="-13.313725490196079"/>
      <point x="231.54901960784315" y="17.647058823529413"/>
      <point x="260.5882352941176" y="65.6470588235294" type="curve"/>
      <point x="281.1372549019608" y="44.568627450980394"/>
      <point x="324.45098039215685" y="-14.0"/>
    </contour>
    <contour>
      <point x="120.05882352941177" y="64.49019607843137" type="curve" smooth="yes"/>
      <point x="86.84313725490196" y="64.49019607843137"/>
      <point x="69.0" y="84.54901960784314"/>
      <point x="69.0" y="113.6078431372549" type="curve" smooth="yes"/>
      <point x="69.0" y="143.6078431372549"/>
      <point x="92.68627450980392" y="160.50980392156862"/>
      <point x="121.2156862745098" y="160.50980392156862" type="curve" smooth="yes"/>
      <point x="147.90196078431373" y="160.50980392156862"/>
      <point x="167.05882352941177" y="150.35294117647058"/>
      <point x="184.4313725490196" y="133.50980392156862" type="curve"/>
      <point x="176.9607843137255" y="110.62745098039215"/>
      <point x="160.33333333333334" y="64.49019607843137"/>
    </contour>
  </outline>
</glyph>
<glyph name="uni1BB9" format="2">
  <advance width="756.7647058823529"/>
  <unicode hex="1BB9"/>
  <outline>
    <contour>
      <point x="67.76470588235294" y="0.0" type="line"/>
      <point x="645.5098039215686" y="0.0" type="line"/>
      <point x="666.1764705882352" y="61.05882352941177" type="line"/>
      <point x="542.5882352941177" y="170.80392156862746" type="line" smooth="yes"/>
      <point x="520.3529411764706" y="190.09803921568627"/>
      <point x="487.88235294117646" y="218.5686274509804"/>
      <point x="487.88235294117646" y="236.47058823529412" type="curve" smooth="yes"/>
      <point x="487.88235294117646" y="250.52941176470588"/>
      <point x="494.03921568627453" y="269.4901960784314"/>
      <point x="533.0392156862745" y="269.4901960784314" type="curve" smooth="yes"/>
      <point x="722.843137254902" y="269.4901960784314" type="line"/>
      <point x="752.9215686274509" y="360.4117647058824" type="line"/>
      <point x="524.6666666666666" y="360.4117647058824" type="line" smooth="yes"/>
      <point x="421.078431372549" y="360.4117647058824"/>
      <point x="380.3529411764706" y="309.3137254901961"/>
      <point x="380.3529411764706" y="245.58823529411765" type="curve" smooth="yes"/>
      <point x="380.3529411764706" y="203.15686274509804"/>
      <point x="409.47058823529414" y="166.2549019607843"/>
      <point x="437.0" y="141.62745098039215" type="curve" smooth="yes"/>
      <point x="493.1372549019608" y="90.76470588235294" type="line"/>
      <point x="210.05882352941177" y="90.76470588235294" type="line"/>
      <point x="385.9019607843137" y="622.4509803921569" type="line"/>
      <point x="465.9019607843137" y="622.4509803921569" type="line"/>
      <point x="484.9019607843137" y="575.4509803921569" type="line"/>
      <point x="589.2352941176471" y="575.4509803921569" type="line"/>
      <point x="543.843137254902" y="714.0" type="line"/>
      <point x="150.01960784313727" y="714.0" type="line"/>
      <point x="100.94117647058823" y="561.4509803921569" type="line"/>
      <point x="201.62745098039215" y="561.4509803921569" type="line"/>
      <point x="220.7843137254902" y="622.4509803921569" type="line"/>
      <point x="272.6862745098039" y="622.4509803921569" type="line"/>
    </contour>
  </outline>
</glyph>
<glyph name="uni1BBA" format="2">
  <advance width="371.84313725490193"/>
  <unicode hex="1BBA"/>
  <outline>
    <contour>
      <point x="66.29411764705883" y="0.0" type="line"/>
      <point x="178.09803921568627" y="0.0" type="line"/>
      <point x="415.0980392156863" y="714.0" type="line"/>
      <point x="157.11764705882354" y="714.0" type="line"/>
      <point x="127.0392156862745" y="622.4509803921569" type="line"/>
      <point x="271.37254901960785" y="622.4509803921569" type="line"/>
      <point x="253.05882352941177" y="566.3529411764706" type="line"/>
      <point x="111.13725490196079" y="566.3529411764706" type="line"/>
      <point x="80.90196078431373" y="474.80392156862746" type="line"/>
      <point x="222.98039215686273" y="474.80392156862746" type="line"/>
    </contour>
  </outline>
</glyph>
<glyph name="uni1BBB" format="2">
  <advance width="736.156862745098"/>
  <unicode hex="1BBB"/>
  <outline>
    <contour>
      <point x="120.82352941176471" y="168.05882352941177" type="line"/>
      <point x="595.3921568627451" y="168.05882352941177" type="line"/>
      <point x="776.0392156862745" y="714.0" type="line"/>
      <point x="483.88235294117646" y="714.0" type="line"/>
      <point x="453.6470588235294" y="622.4509803921569" type="line"/>
      <point x="633.0980392156863" y="622.4509803921569" type="line"/>
      <point x="513.9215686274509" y="260.2352941176471" type="line"/>
      <point x="262.6078431372549" y="260.2352941176471" type="line"/>
      <point x="413.01960784313724" y="714.0" type="line"/>
      <point x="120.6470588235294" y="714.0" type="line"/>
      <point x="90.41176470588235" y="622.4509803921569" type="line"/>
      <point x="270.2352941176471" y="622.4509803921569" type="line"/>
    </contour>
    <contour>
      <point x="64.47058823529412" y="0.0" type="line"/>
      <point x="539.0392156862745" y="0.0" type="line"/>
      <point x="569.4313725490196" y="92.01960784313725" type="line"/>
      <point x="94.86274509803921" y="92.01960784313725" type="line"/>
    </contour>
  </outline>
</glyph>
<glyph name="uni1BBC" format="2">
  <advance width="1217.1764705882354"/>
  <unicode hex="1BBC"/>
  <outline>
    <contour>
      <point x="672.3529411764706" y="-313.5098039215686" type="curve" smooth="yes"/>
      <point x="734.8627450980392" y="-313.5098039215686"/>
      <point x="778.686274509804" y="-281.88235294117646"/>
      <point x="797.7843137254902" y="-248.50980392156862" type="curve"/>
      <point x="822.8823529411765" y="-274.1372549019608"/>
      <point x="881.5098039215686" y="-310.98039215686276"/>
      <point x="944.1176470588235" y="-310.98039215686276" type="curve" smooth="yes"/>
      <point x="1126.2549019607843" y="-310.98039215686276"/>
      <point x="1155.5686274509803" y="-20.235294117647058"/>
      <point x="1160.0392156862745" y="103.29411764705883" type="curve"/>
      <point x="1060.5882352941176" y="103.29411764705883" type="line"/>
      <point x="1060.5882352941176" y="79.29411764705883"/>
      <point x="1060.5882352941176" y="51.372549019607845"/>
      <point x="1058.2745098039215" y="25.862745098039216" type="curve" smooth="yes"/>
      <point x="1046.5882352941176" y="-102.86274509803921"/>
      <point x="1011.3529411764706" y="-213.58823529411765"/>
      <point x="944.4313725490196" y="-213.58823529411765" type="curve" smooth="yes"/>
      <point x="908.0588235294117" y="-213.58823529411765"/>
      <point x="868.686274509804" y="-176.62745098039215"/>
      <point x="847.9019607843137" y="-155.52941176470588" type="curve"/>
      <point x="1141.3529411764705" y="714.0" type="line"/>
      <point x="801.0196078431372" y="714.0" type="line"/>
      <point x="770.4705882352941" y="622.6078431372549" type="line"/>
      <point x="999.686274509804" y="622.6078431372549" type="line"/>
      <point x="760.6078431372549" y="-80.50980392156863" type="line"/>
      <point x="736.7647058823529" y="-60.98039215686275"/>
      <point x="705.3529411764706" y="-47.450980392156865"/>
      <point x="669.3529411764706" y="-47.450980392156865" type="curve" smooth="yes"/>
      <point x="575.7058823529412" y="-47.450980392156865"/>
      <point x="526.4117647058823" y="-117.11764705882354"/>
      <point x="526.4117647058823" y="-182.92156862745097" type="curve" smooth="yes"/>
      <point x="526.4117647058823" y="-257.7647058823529"/>
      <point x="582.0980392156863" y="-313.5098039215686"/>
    </contour>
    <contour>
      <point x="666.4117647058823" y="-233.23529411764707" type="curve" smooth="yes"/>
      <point x="635.8823529411765" y="-233.23529411764707"/>
      <point x="613.8823529411765" y="-213.54901960784315"/>
      <point x="613.8823529411765" y="-182.54901960784315" type="curve" smooth="yes"/>
      <point x="613.8823529411765" y="-150.23529411764707"/>
      <point x="637.2549019607843" y="-129.7058823529412"/>
      <point x="668.2549019607843" y="-129.7058823529412" type="curve" smooth="yes"/>
      <point x="701.5686274509804" y="-129.7058823529412"/>
      <point x="716.1960784313726" y="-156.92156862745097"/>
      <point x="723.8823529411765" y="-172.23529411764707" type="curve"/>
      <point x="718.8823529411765" y="-202.3921568627451"/>
      <point x="698.5686274509804" y="-233.23529411764707"/>
    </contour>
    <contour>
      <point x="-22.0" y="0.0" type="line"/>
      <point x="396.88235294117646" y="0.0" type="line"/>
      <point x="488.156862745098" y="279.7647058823529" type="line"/>
      <point x="582.3725490196078" y="0.0" type="line"/>
      <point x="693.0588235294117" y="0.0" type="line"/>
      <point x="548.7450980392157" y="414.7843137254902" type="line"/>
      <point x="430.3921568627451" y="414.7843137254902" type="line"/>
      <point x="317.2549019607843" y="92.17647058823529" type="line"/>
      <point x="119.19607843137254" y="92.17647058823529" type="line"/>
      <point x="293.88235294117646" y="622.4509803921569" type="line"/>
      <point x="508.6470588235294" y="622.4509803921569" type="line"/>
      <point x="537.9411764705883" y="714.0" type="line"/>
      <point x="214.0" y="714.0" type="line"/>
    </contour>
  </outline>
</glyph>
<glyph name="uni1BBD" format="2">
  <advance width="1330.8235294117646"/>
  <unicode hex="1BBD"/>
  <outline>
    <contour>
      <point x="132.7843137254902" y="0.0" type="line"/>
      <point x="985.4901960784314" y="0.0" type="line"/>
      <point x="1015.4117647058823" y="89.98039215686275" type="line"/>
      <point x="796.3333333333334" y="89.98039215686275" type="line"/>
      <point x="971.8039215686274" y="622.4509803921569" type="line"/>
      <point x="1227.4901960784314" y="622.4509803921569" type="line"/>
      <point x="1144.3529411764705" y="366.29411764705884" type="line"/>
      <point x="1027.9019607843138" y="366.29411764705884" type="line"/>
      <point x="997.5098039215686" y="274.7450980392157" type="line"/>
      <point x="1224.1960784313726" y="274.7450980392157" type="line"/>
      <point x="1369.3333333333333" y="714.0" type="line"/>
      <point x="890.2352941176471" y="714.0" type="line"/>
      <point x="684.156862745098" y="89.98039215686275" type="line"/>
      <point x="481.6862745098039" y="89.98039215686275" type="line"/>
      <point x="689.7647058823529" y="714.0" type="line"/>
      <point x="208.13725490196077" y="714.0" type="line"/>
      <point x="61.470588235294116" y="267.15686274509807" type="line"/>
      <point x="278.52941176470586" y="267.15686274509807" type="line"/>
      <point x="308.7647058823529" y="358.70588235294116" type="line"/>
      <point x="201.62745098039215" y="358.70588235294116" type="line"/>
      <point x="289.1372549019608" y="622.4509803921569" type="line"/>
      <point x="545.3529411764706" y="622.4509803921569" type="line"/>
      <point x="369.19607843137254" y="89.98039215686275" type="line"/>
      <point x="162.7058823529412" y="89.98039215686275" type="line"/>
    </contour>
  </outline>
</glyph>
<glyph name="uni1BBE" format="2">
  <advance width="1075.9411764705883"/>
  <unicode hex="1BBE"/>
  <outline>
    <contour>
      <point x="63.80392156862745" y="0.0" type="line"/>
      <point x="1018.1960784313726" y="0.0" type="line"/>
      <point x="1047.4901960784314" y="89.98039215686275" type="line"/>
      <point x="844.4705882352941" y="89.98039215686275" type="line"/>
      <point x="1051.1764705882354" y="714.0" type="line"/>
      <point x="605.4901960784314" y="714.0" type="line"/>
      <point x="575.4117647058823" y="622.4509803921569" type="line"/>
      <point x="908.8627450980392" y="622.4509803921569" type="line"/>
      <point x="733.2352941176471" y="89.98039215686275" type="line"/>
      <point x="351.7843137254902" y="89.98039215686275" type="line"/>
      <point x="558.4901960784314" y="714.0" type="line"/>
      <point x="107.37254901960785" y="714.0" type="line"/>
      <point x="77.13725490196079" y="622.4509803921569" type="line"/>
      <point x="416.1764705882353" y="622.4509803921569" type="line"/>
      <point x="240.7058823529412" y="89.98039215686275" type="line"/>
      <point x="93.09803921568627" y="89.98039215686275" type="line"/>
    </contour>
    <contour>
      <point x="125.49019607843137" y="179.13725490196077" type="line"/>
      <point x="214.76470588235293" y="179.13725490196077" type="line"/>
      <point x="331.0980392156863" y="529.6666666666666" type="line"/>
      <point x="92.29411764705883" y="529.6666666666666" type="line"/>
      <point x="64.47058823529412" y="446.8235294117647" type="line"/>
      <point x="214.0" y="446.8235294117647" type="line"/>
    </contour>
    <contour>
      <point x="618.1764705882352" y="179.13725490196077" type="line"/>
      <point x="707.4509803921569" y="179.13725490196077" type="line"/>
      <point x="823.7843137254902" y="529.6666666666666" type="line"/>
      <point x="584.9803921568628" y="529.6666666666666" type="line"/>
      <point x="557.156862745098" y="446.8235294117647" type="line"/>
      <point x="706.6862745098039" y="446.8235294117647" type="line"/>
    </contour>
  </outline>
</glyph>
<glyph name="uni1BBF" format="2">
  <advance width="728.2549019607843"/>
  <unicode hex="1BBF"/>
  <outline>
    <contour>
      <point x="417.5882352941176" y="0.0" type="line"/>
      <point x="529.2941176470588" y="0.0" type="line"/>
      <point x="767.2941176470588" y="714.0" type="line"/>
      <point x="138.0" y="714.0" type="line"/>
      <point x="107.76470588235294" y="622.4509803921569" type="line"/>
      <point x="627.3529411764706" y="622.4509803921569" type="line"/>
    </contour>
    <contour>
      <point x="110.27450980392157" y="35.509803921568626" type="line"/>
      <point x="348.1372549019608" y="35.509803921568626" type="line"/>
      <point x="376.96078431372547" y="123.13725490196079" type="line"/>
      <point x="139.09803921568627" y="123.13725490196079" type="line"/>
    </contour>
    <contour>
      <point x="109.17647058823529" y="230.37254901960785" type="line"/>
      <point x="412.03921568627453" y="230.37254901960785" type="line"/>
      <point x="440.8627450980392" y="318.0" type="line"/>
      <point x="138.0" y="318.0" type="line"/>
    </contour>
    <contour>
      <point x="107.92156862745098" y="425.2352941176471" type="line"/>
      <point x="475.7843137254902" y="425.2352941176471" type="line"/>
      <point x="504.7647058823529" y="512.8627450980392" type="line"/>
      <point x="136.90196078431373" y="512.8627450980392" type="line"/>
    </contour>
  </outline>
</glyph>
<glyph name="uni1CC0" format="2">
  <advance width="1021.1372549019608"/>
  <unicode hex="1CC0"/>
  <outline>
    <contour>
      <point x="372.4901960784314" y="-116.13725490196079" type="line"/>
      <point x="437.5686274509804" y="-116.13725490196079" type="line"/>
      <point x="509.5686274509804" y="-25.137254901960784" type="line"/>
      <point x="581.5686274509804" y="-116.13725490196079" type="line"/>
      <point x="646.6470588235294" y="-116.13725490196079" type="line"/>
      <point x="561.6470588235294" y="-8.137254901960784" type="line"/>
      <point x="561.6470588235294" y="76.13725490196079" type="line"/>
      <point x="677.3921568627451" y="96.6078431372549"/>
      <point x="769.9607843137255" y="190.1764705882353"/>
      <point x="790.4313725490196" y="306.921568627451" type="curve"/>
      <point x="874.7058823529412" y="306.921568627451" type="line"/>
      <point x="982.7058823529412" y="221.921568627451" type="line"/>
      <point x="982.7058823529412" y="287.0" type="line"/>
      <point x="891.7058823529412" y="359.0" type="line"/>
      <point x="982.7058823529412" y="431.0" type="line"/>
      <point x="982.7058823529412" y="496.078431372549" type="line"/>
      <point x="874.7058823529412" y="411.078431372549" type="line"/>
      <point x="790.4313725490196" y="411.078431372549" type="line"/>
      <point x="769.9607843137255" y="527.8235294117648"/>
      <point x="677.3921568627451" y="619.3921568627451"/>
      <point x="561.6470588235294" y="639.8627450980392" type="curve"/>
      <point x="561.6470588235294" y="724.1372549019608" type="line"/>
      <point x="646.6470588235294" y="832.1372549019608" type="line"/>
      <point x="581.5686274509804" y="832.1372549019608" type="line"/>
      <point x="509.5686274509804" y="741.2941176470588" type="line"/>
      <point x="437.5686274509804" y="832.1372549019608" type="line"/>
      <point x="372.4901960784314" y="832.1372549019608" type="line"/>
      <point x="457.4901960784314" y="724.1372549019608" type="line"/>
      <point x="457.4901960784314" y="639.8627450980392" type="line"/>
      <point x="341.7450980392157" y="619.3921568627451"/>
      <point x="247.1764705882353" y="527.8235294117648"/>
      <point x="226.7058823529412" y="411.078431372549" type="curve"/>
      <point x="142.4313725490196" y="411.078431372549" type="line"/>
      <point x="34.431372549019606" y="496.078431372549" type="line"/>
      <point x="34.431372549019606" y="431.0" type="line"/>
      <point x="125.43137254901961" y="359.0" type="line"/>
      <point x="34.431372549019606" y="287.0" type="line"/>
      <point x="34.431372549019606" y="221.921568627451" type="line"/>
      <point x="142.4313725490196" y="306.921568627451" type="line"/>
      <point x="226.7058823529412" y="306.921568627451" type="line"/>
      <point x="247.1764705882353" y="190.1764705882353"/>
      <point x="341.7450980392157" y="96.6078431372549"/>
      <point x="457.4901960784314" y="76.13725490196079" type="curve"/>
      <point x="457.4901960784314" y="-8.137254901960784" type="line"/>
    </contour>
    <contour>
      <point x="509.5686274509804" y="157.2941176470588" type="curve" smooth="yes"/>
      <point x="400.29411764705884" y="157.2941176470588"/>
      <point x="306.8627450980392" y="248.72549019607843"/>
      <point x="306.8627450980392" y="358.0" type="curve" smooth="yes"/>
      <point x="306.8627450980392" y="467.27450980392155"/>
      <point x="400.29411764705884" y="558.7058823529412"/>
      <point x="509.5686274509804" y="558.7058823529412" type="curve" smooth="yes"/>
      <point x="618.843137254902" y="558.7058823529412"/>
      <point x="709.2745098039215" y="467.27450980392155"/>
      <point x="709.2745098039215" y="358.0" type="curve" smooth="yes"/>
      <point x="709.2745098039215" y="248.72549019607843"/>
      <point x="618.843137254902" y="157.2941176470588"/>
    </contour>
    <contour>
      <point x="509.5686274509804" y="259.05882352941177" type="curve" smooth="yes"/>
      <point x="563.0392156862745" y="259.05882352941177"/>
      <point x="608.5098039215686" y="304.52941176470586"/>
      <point x="608.5098039215686" y="358.0" type="curve" smooth="yes"/>
      <point x="608.5098039215686" y="411.47058823529414"/>
      <point x="563.0392156862745" y="456.94117647058823"/>
      <point x="509.5686274509804" y="456.94117647058823" type="curve" smooth="yes"/>
      <point x="456.0980392156863" y="456.94117647058823"/>
      <point x="410.62745098039215" y="411.47058823529414"/>
      <point x="410.62745098039215" y="358.0" type="curve" smooth="yes"/>
      <point x="410.62745098039215" y="304.52941176470586"/>
      <point x="456.0980392156863" y="259.05882352941177"/>
    </contour>
    <contour>
      <point x="509.5686274509804" y="313.62745098039215" type="curve" smooth="yes"/>
      <point x="484.88235294117646" y="313.62745098039215"/>
      <point x="465.19607843137254" y="333.3137254901961"/>
      <point x="465.19607843137254" y="358.0" type="curve" smooth="yes"/>
      <point x="465.19607843137254" y="382.6862745098039"/>
      <point x="484.88235294117646" y="402.37254901960785"/>
      <point x="509.5686274509804" y="402.37254901960785" type="curve" smooth="yes"/>
      <point x="534.2549019607843" y="402.37254901960785"/>
      <point x="553.9411764705883" y="382.6862745098039"/>
      <point x="553.9411764705883" y="358.0" type="curve" smooth="yes"/>
      <point x="553.9411764705883" y="333.3137254901961"/>
      <point x="534.2549019607843" y="313.62745098039215"/>
    </contour>
  </outline>
</glyph>
<glyph name="uni1CC1" format="2">
  <advance width="674.0"/>
  <unicode hex="1CC1"/>
  <outline>
    <contour>
      <point x="344.0" y="76.45098039215686" type="curve" smooth="yes"/>
      <point x="499.5098039215686" y="76.45098039215686"/>
      <point x="625.5490196078431" y="202.49019607843138"/>
      <point x="625.5490196078431" y="358.0" type="curve" smooth="yes"/>
      <point x="625.5490196078431" y="513.5098039215686"/>
      <point x="499.5098039215686" y="639.5490196078431"/>
      <point x="344.0" y="639.5490196078431" type="curve" smooth="yes"/>
      <point x="188.49019607843138" y="639.5490196078431"/>
      <point x="62.450980392156865" y="513.5098039215686"/>
      <point x="62.450980392156865" y="358.0" type="curve" smooth="yes"/>
      <point x="62.450980392156865" y="202.49019607843138"/>
      <point x="188.49019607843138" y="76.45098039215686"/>
    </contour>
    <contour>
      <point x="179.7843137254902" y="242.92156862745097" type="line"/>
      <point x="156.35294117647058" y="274.98039215686276"/>
      <point x="142.8235294117647" y="314.5686274509804"/>
      <point x="142.8235294117647" y="358.0" type="curve" smooth="yes"/>
      <point x="142.8235294117647" y="401.6862745098039"/>
      <point x="156.8235294117647" y="441.11764705882354"/>
      <point x="178.94117647058823" y="471.921568627451" type="curve"/>
      <point x="293.8627450980392" y="357.0" type="line"/>
    </contour>
    <contour>
      <point x="344.0" y="157.2941176470588" type="curve" smooth="yes"/>
      <point x="300.72549019607845" y="157.2941176470588"/>
      <point x="260.98039215686276" y="170.66666666666666"/>
      <point x="229.23529411764707" y="194.09803921568627" type="curve"/>
      <point x="343.0" y="307.8627450980392" type="line"/>
      <point x="457.6078431372549" y="193.2549019607843" type="line"/>
      <point x="425.8627450980392" y="170.66666666666666"/>
      <point x="386.27450980392155" y="157.2941176470588"/>
    </contour>
    <contour>
      <point x="343.0" y="406.1372549019608" type="line"/>
      <point x="228.078431372549" y="521.0588235294117" type="line"/>
      <point x="260.98039215686276" y="544.4901960784314"/>
      <point x="300.5686274509804" y="558.7058823529412"/>
      <point x="344.0" y="558.7058823529412" type="curve" smooth="yes"/>
      <point x="386.4313725490196" y="558.7058823529412"/>
      <point x="426.01960784313724" y="544.4901960784314"/>
      <point x="458.7647058823529" y="521.9019607843137" type="curve"/>
    </contour>
    <contour>
      <point x="506.7450980392157" y="242.3921568627451" type="curve"/>
      <point x="392.1372549019608" y="357.0" type="line"/>
      <point x="507.7450980392157" y="472.6078431372549" type="line"/>
      <point x="530.1764705882352" y="439.8627450980392"/>
      <point x="544.3921568627451" y="400.27450980392155"/>
      <point x="544.3921568627451" y="358.0" type="curve" smooth="yes"/>
      <point x="544.3921568627451" y="314.72549019607845"/>
      <point x="530.1764705882352" y="275.1372549019608"/>
    </contour>
  </outline>
</glyph>
<glyph name="uni1CC2" format="2">
  <advance width="674.0"/>
  <unicode hex="1CC2"/>
  <outline>
    <contour>
      <point x="344.0" y="76.45098039215686" type="curve" smooth="yes"/>
      <point x="499.5098039215686" y="76.45098039215686"/>
      <point x="625.5490196078431" y="202.49019607843138"/>
      <point x="625.5490196078431" y="358.0" type="curve" smooth="yes"/>
      <point x="625.5490196078431" y="513.5098039215686"/>
      <point x="499.5098039215686" y="639.5490196078431"/>
      <point x="344.0" y="639.5490196078431" type="curve" smooth="yes"/>
      <point x="188.49019607843138" y="639.5490196078431"/>
      <point x="62.450980392156865" y="513.5098039215686"/>
      <point x="62.450980392156865" y="358.0" type="curve" smooth="yes"/>
      <point x="62.450980392156865" y="202.49019607843138"/>
      <point x="188.49019607843138" y="76.45098039215686"/>
    </contour>
    <contour>
      <point x="344.0" y="157.2941176470588" type="curve" smooth="yes"/>
      <point x="293.7843137254902" y="157.2941176470588"/>
      <point x="249.66666666666666" y="175.98039215686273"/>
      <point x="215.078431372549" y="204.09803921568627" type="curve"/>
      <point x="237.2941176470588" y="221.62745098039215"/>
      <point x="283.5098039215686" y="247.52941176470588"/>
      <point x="344.0" y="247.52941176470588" type="curve" smooth="yes"/>
      <point x="404.4901960784314" y="247.52941176470588"/>
      <point x="449.70588235294116" y="221.62745098039215"/>
      <point x="471.921568627451" y="204.09803921568627" type="curve"/>
      <point x="438.3333333333333" y="175.98039215686273"/>
      <point x="393.2156862745098" y="157.2941176470588"/>
    </contour>
    <contour>
      <point x="169.7843137254902" y="257.8627450980392" type="curve"/>
      <point x="153.35294117647058" y="286.8235294117647"/>
      <point x="142.8235294117647" y="320.5686274509804"/>
      <point x="142.8235294117647" y="358.0" type="curve" smooth="yes"/>
      <point x="142.8235294117647" y="394.5882352941176"/>
      <point x="153.35294117647058" y="429.1764705882353"/>
      <point x="169.7843137254902" y="458.1372549019608" type="curve"/>
      <point x="201.62745098039215" y="433.6078431372549"/>
      <point x="264.2549019607843" y="398.078431372549"/>
      <point x="344.0" y="398.078431372549" type="curve" smooth="yes"/>
      <point x="423.7450980392157" y="398.078431372549"/>
      <point x="485.5882352941176" y="433.6078431372549"/>
      <point x="516.7450980392157" y="458.1372549019608" type="curve"/>
      <point x="534.1764705882352" y="428.3921568627451"/>
      <point x="544.3921568627451" y="394.5882352941176"/>
      <point x="544.3921568627451" y="358.0" type="curve" smooth="yes"/>
      <point x="544.3921568627451" y="320.5686274509804"/>
      <point x="534.1764705882352" y="287.6078431372549"/>
      <point x="516.7450980392157" y="257.8627450980392" type="curve"/>
      <point x="485.5882352941176" y="281.54901960784315"/>
      <point x="423.7450980392157" y="317.921568627451"/>
      <point x="344.0" y="317.921568627451" type="curve" smooth="yes"/>
      <point x="264.2549019607843" y="317.921568627451"/>
      <point x="201.62745098039215" y="281.54901960784315"/>
    </contour>
    <contour>
      <point x="344.0" y="468.47058823529414" type="curve" smooth="yes"/>
      <point x="283.5098039215686" y="468.47058823529414"/>
      <point x="237.2941176470588" y="494.37254901960785"/>
      <point x="215.078431372549" y="511.05882352941177" type="curve"/>
      <point x="249.66666666666666" y="540.0196078431372"/>
      <point x="293.7843137254902" y="558.7058823529412"/>
      <point x="344.0" y="558.7058823529412" type="curve" smooth="yes"/>
      <point x="393.2156862745098" y="558.7058823529412"/>
      <point x="438.3333333333333" y="540.0196078431372"/>
      <point x="471.921568627451" y="511.05882352941177" type="curve"/>
      <point x="449.70588235294116" y="494.37254901960785"/>
      <point x="404.4901960784314" y="468.47058823529414"/>
    </contour>
  </outline>
</glyph>
<glyph name="uni1CC3" format="2">
  <advance width="674.0"/>
  <unicode hex="1CC3"/>
  <outline>
    <contour>
      <point x="344.0" y="76.45098039215686" type="curve" smooth="yes"/>
      <point x="499.5098039215686" y="76.45098039215686"/>
      <point x="625.5490196078431" y="202.49019607843138"/>
      <point x="625.5490196078431" y="358.0" type="curve" smooth="yes"/>
      <point x="625.5490196078431" y="513.5098039215686"/>
      <point x="499.5098039215686" y="639.5490196078431"/>
      <point x="344.0" y="639.5490196078431" type="curve" smooth="yes"/>
      <point x="188.49019607843138" y="639.5490196078431"/>
      <point x="62.450980392156865" y="513.5098039215686"/>
      <point x="62.450980392156865" y="358.0" type="curve" smooth="yes"/>
      <point x="62.450980392156865" y="202.49019607843138"/>
      <point x="188.49019607843138" y="76.45098039215686"/>
    </contour>
    <contour>
      <point x="344.0" y="157.2941176470588" type="curve" smooth="yes"/>
      <point x="233.88235294117646" y="157.2941176470588"/>
      <point x="143.2941176470588" y="247.88235294117646"/>
      <point x="143.2941176470588" y="358.0" type="curve" smooth="yes"/>
      <point x="143.2941176470588" y="468.11764705882354"/>
      <point x="233.88235294117646" y="558.7058823529412"/>
      <point x="344.0" y="558.7058823529412" type="curve" smooth="yes"/>
      <point x="454.11764705882354" y="558.7058823529412"/>
      <point x="544.7058823529412" y="468.11764705882354"/>
      <point x="544.7058823529412" y="358.0" type="curve" smooth="yes"/>
      <point x="544.7058823529412" y="247.88235294117646"/>
      <point x="454.11764705882354" y="157.2941176470588"/>
    </contour>
  </outline>
</glyph>
<glyph name="uni1CC4" format="2">
  <advance width="1748.078431372549"/>
  <unicode hex="1CC4"/>
  <outline>
    <contour>
      <point x="973.156862745098" y="-313.5098039215686" type="curve" smooth="yes"/>
      <point x="1035.6666666666667" y="-313.5098039215686"/>
      <point x="1079.4901960784314" y="-281.88235294117646"/>
      <point x="1098.5882352941176" y="-248.50980392156862" type="curve"/>
      <point x="1123.686274509804" y="-274.1372549019608"/>
      <point x="1182.313725490196" y="-310.98039215686276"/>
      <point x="1244.921568627451" y="-310.98039215686276" type="curve" smooth="yes"/>
      <point x="1327.5294117647059" y="-310.98039215686276"/>
      <point x="1372.6078431372548" y="-249.41176470588235"/>
      <point x="1398.4313725490197" y="-197.64705882352942" type="curve"/>
      <point x="1323.0588235294117" y="-149.49019607843138" type="line"/>
      <point x="1303.549019607843" y="-183.2156862745098"/>
      <point x="1286.8235294117646" y="-213.58823529411765"/>
      <point x="1245.235294117647" y="-213.58823529411765" type="curve" smooth="yes"/>
      <point x="1208.862745098039" y="-213.58823529411765"/>
      <point x="1169.4901960784314" y="-176.62745098039215"/>
      <point x="1148.7058823529412" y="-155.52941176470588" type="curve"/>
      <point x="1439.0196078431372" y="714.0" type="line"/>
      <point x="1103.7058823529412" y="714.0" type="line"/>
      <point x="1073.1568627450981" y="622.7647058823529" type="line"/>
      <point x="1297.6666666666667" y="622.7647058823529" type="line"/>
      <point x="1061.4117647058824" y="-80.50980392156863" type="line"/>
      <point x="1037.5686274509803" y="-60.98039215686275"/>
      <point x="1006.156862745098" y="-47.450980392156865"/>
      <point x="970.156862745098" y="-47.450980392156865" type="curve" smooth="yes"/>
      <point x="876.5098039215686" y="-47.450980392156865"/>
      <point x="827.2156862745098" y="-117.11764705882354"/>
      <point x="827.2156862745098" y="-182.92156862745097" type="curve" smooth="yes"/>
      <point x="827.2156862745098" y="-257.7647058823529"/>
      <point x="882.9019607843137" y="-313.5098039215686"/>
    </contour>
    <contour>
      <point x="-22.0" y="0.0" type="line"/>
      <point x="396.88235294117646" y="0.0" type="line"/>
      <point x="488.156862745098" y="279.7647058823529" type="line"/>
      <point x="582.3725490196078" y="0.0" type="line"/>
      <point x="693.0588235294117" y="0.0" type="line"/>
      <point x="548.7450980392157" y="414.7843137254902" type="line"/>
      <point x="430.3921568627451" y="414.7843137254902" type="line"/>
      <point x="317.2549019607843" y="92.17647058823529" type="line"/>
      <point x="119.19607843137254" y="92.17647058823529" type="line"/>
      <point x="294.03921568627453" y="622.9215686274509" type="line"/>
      <point x="508.80392156862746" y="622.9215686274509" type="line"/>
      <point x="537.9411764705883" y="714.0" type="line"/>
      <point x="214.0" y="714.0" type="line"/>
    </contour>
    <contour>
      <point x="967.2156862745098" y="-233.23529411764707" type="curve" smooth="yes"/>
      <point x="936.686274509804" y="-233.23529411764707"/>
      <point x="914.686274509804" y="-213.54901960784315"/>
      <point x="914.686274509804" y="-182.54901960784315" type="curve" smooth="yes"/>
      <point x="914.686274509804" y="-150.23529411764707"/>
      <point x="938.0588235294117" y="-129.7058823529412"/>
      <point x="969.0588235294117" y="-129.7058823529412" type="curve" smooth="yes"/>
      <point x="1002.3725490196078" y="-129.7058823529412"/>
      <point x="1017.0" y="-156.92156862745097"/>
      <point x="1024.686274509804" y="-172.23529411764707" type="curve"/>
      <point x="1019.686274509804" y="-202.3921568627451"/>
      <point x="999.3725490196078" y="-233.23529411764707"/>
    </contour>
    <contour>
      <point x="742.2745098039215" y="34.88235294117647" type="line"/>
      <point x="998.5294117647059" y="34.88235294117647" type="line"/>
      <point x="1028.764705882353" y="126.11764705882354" type="line"/>
      <point x="772.5098039215686" y="126.11764705882354" type="line"/>
    </contour>
    <contour>
      <point x="682.1176470588235" y="230.84313725490196" type="line"/>
      <point x="1063.9019607843138" y="230.84313725490196" type="line"/>
      <point x="1094.137254901961" y="322.078431372549" type="line"/>
      <point x="712.3529411764706" y="322.078431372549" type="line"/>
    </contour>
    <contour>
      <point x="623.7450980392157" y="426.80392156862746" type="line"/>
      <point x="1125.2156862745098" y="426.80392156862746" type="line"/>
      <point x="1155.2941176470588" y="518.0392156862745" type="line"/>
      <point x="653.8235294117648" y="518.0392156862745" type="line"/>
    </contour>
    <contour>
      <point x="557.313725490196" y="622.9215686274509" type="line"/>
      <point x="1019.3921568627451" y="622.9215686274509" type="line"/>
      <point x="1049.4705882352941" y="714.0" type="line"/>
      <point x="587.3921568627451" y="714.0" type="line"/>
    </contour>
    <contour>
      <point x="1325.0" y="35.03921568627451" type="line"/>
      <point x="1574.9803921568628" y="35.03921568627451" type="line"/>
      <point x="1605.0588235294117" y="126.11764705882354" type="line"/>
      <point x="1355.078431372549" y="126.11764705882354" type="line"/>
    </contour>
    <contour>
      <point x="1390.372549019608" y="231.0" type="line"/>
      <point x="1640.3529411764705" y="231.0" type="line"/>
      <point x="1670.4313725490197" y="322.078431372549" type="line"/>
      <point x="1420.450980392157" y="322.078431372549" type="line"/>
    </contour>
    <contour>
      <point x="1455.7450980392157" y="426.96078431372547" type="line"/>
      <point x="1705.7254901960785" y="426.96078431372547" type="line"/>
      <point x="1735.8039215686274" y="518.0392156862745" type="line"/>
      <point x="1485.8235294117646" y="518.0392156862745" type="line"/>
    </contour>
    <contour>
      <point x="1518.9607843137255" y="622.9215686274509" type="line"/>
      <point x="1768.9411764705883" y="622.9215686274509" type="line"/>
      <point x="1799.0196078431372" y="714.0" type="line"/>
      <point x="1549.0392156862745" y="714.0" type="line"/>
    </contour>
  </outline>
</glyph>
<glyph name="uni1CC5" format="2">
  <advance width="757.1764705882352"/>
  <unicode hex="1CC5"/>
  <outline>
    <contour>
      <point x="84.0392156862745" y="0.0" type="line"/>
      <point x="196.37254901960785" y="0.0" type="line"/>
      <point x="434.37254901960785" y="714.0" type="line"/>
      <point x="99.68627450980392" y="714.0" type="line"/>
      <point x="69.45098039215686" y="622.4509803921569" type="line"/>
      <point x="293.80392156862746" y="622.4509803921569" type="line"/>
    </contour>
    <contour>
      <point x="321.6666666666667" y="35.03921568627451" type="line"/>
      <point x="571.6470588235294" y="35.03921568627451" type="line"/>
      <point x="601.7254901960785" y="126.11764705882354" type="line"/>
      <point x="351.7450980392157" y="126.11764705882354" type="line"/>
    </contour>
    <contour>
      <point x="387.03921568627453" y="231.0" type="line"/>
      <point x="637.0196078431372" y="231.0" type="line"/>
      <point x="667.0980392156863" y="322.078431372549" type="line"/>
      <point x="417.11764705882354" y="322.078431372549" type="line"/>
    </contour>
    <contour>
      <point x="452.4117647058824" y="426.96078431372547" type="line"/>
      <point x="702.3921568627451" y="426.96078431372547" type="line"/>
      <point x="732.4705882352941" y="518.0392156862745" type="line"/>
      <point x="482.4901960784314" y="518.0392156862745" type="line"/>
    </contour>
    <contour>
      <point x="515.6274509803922" y="622.9215686274509" type="line"/>
      <point x="765.6078431372549" y="622.9215686274509" type="line"/>
      <point x="795.6862745098039" y="714.0" type="line"/>
      <point x="545.7058823529412" y="714.0" type="line"/>
    </contour>
  </outline>
</glyph>
<glyph name="uni1CC6" format="2">
  <advance width="1182.5294117647059"/>
  <unicode hex="1CC6"/>
  <outline>
    <contour>
      <point x="-22.0" y="0.0" type="line"/>
      <point x="396.88235294117646" y="0.0" type="line"/>
      <point x="488.156862745098" y="279.7647058823529" type="line"/>
      <point x="582.3725490196078" y="0.0" type="line"/>
      <point x="693.0588235294117" y="0.0" type="line"/>
      <point x="548.7450980392157" y="414.7843137254902" type="line"/>
      <point x="430.3921568627451" y="414.7843137254902" type="line"/>
      <point x="317.2549019607843" y="92.17647058823529" type="line"/>
      <point x="119.19607843137254" y="92.17647058823529" type="line"/>
      <point x="293.88235294117646" y="622.4509803921569" type="line"/>
      <point x="508.6470588235294" y="622.4509803921569" type="line"/>
      <point x="537.0980392156863" y="714.0" type="line"/>
      <point x="214.0" y="714.0" type="line"/>
    </contour>
    <contour>
      <point x="742.7450980392157" y="36.13725490196079" type="line"/>
      <point x="999.0" y="36.13725490196079" type="line"/>
      <point x="1028.764705882353" y="126.11764705882354" type="line"/>
      <point x="772.5098039215686" y="126.11764705882354" type="line"/>
    </contour>
    <contour>
      <point x="682.5882352941177" y="232.09803921568627" type="line"/>
      <point x="1064.372549019608" y="232.09803921568627" type="line"/>
      <point x="1094.137254901961" y="322.078431372549" type="line"/>
      <point x="712.3529411764706" y="322.078431372549" type="line"/>
    </contour>
    <contour>
      <point x="624.0588235294117" y="428.05882352941177" type="line"/>
      <point x="1125.5294117647059" y="428.05882352941177" type="line"/>
      <point x="1155.2941176470588" y="518.0392156862745" type="line"/>
      <point x="653.8235294117648" y="518.0392156862745" type="line"/>
    </contour>
    <contour>
      <point x="557.6274509803922" y="624.0196078431372" type="line"/>
      <point x="1198.862745098039" y="624.0196078431372" type="line"/>
      <point x="1228.627450980392" y="714.0" type="line"/>
      <point x="587.3921568627451" y="714.0" type="line"/>
    </contour>
  </outline>
</glyph>
<glyph name="uni1CC7" format="2">
  <advance width="1669.9411764705883"/>
  <unicode hex="1CC7"/>
  <outline>
    <contour>
      <point x="309.62745098039215" y="0.0" type="line"/>
      <point x="717.6666666666666" y="0.0" type="line"/>
      <point x="818.1764705882352" y="306.2156862745098" type="line"/>
      <point x="1035.7058823529412" y="0.0" type="line"/>
      <point x="1111.8235294117646" y="0.0" type="line"/>
      <point x="1349.8235294117646" y="714.0" type="line"/>
      <point x="851.9215686274509" y="714.0" type="line"/>
      <point x="806.6274509803922" y="578.0196078431372" type="line"/>
      <point x="916.1176470588235" y="578.0196078431372" type="line"/>
      <point x="932.1176470588235" y="624.0196078431372" type="line"/>
      <point x="1209.4117647058824" y="624.0196078431372" type="line"/>
      <point x="1049.9803921568628" y="152.2549019607843" type="line"/>
      <point x="822.6666666666666" y="474.0" type="line"/>
      <point x="764.6078431372549" y="474.0" type="line"/>
      <point x="636.843137254902" y="91.54901960784314" type="line"/>
      <point x="450.5098039215686" y="91.54901960784314" type="line"/>
      <point x="625.3529411764706" y="622.4509803921569" type="line"/>
      <point x="715.3725490196078" y="622.4509803921569" type="line"/>
      <point x="744.2941176470588" y="714.0" type="line"/>
      <point x="545.3137254901961" y="714.0" type="line"/>
    </contour>
    <contour>
      <point x="-49.254901960784316" y="36.13725490196079" type="line"/>
      <point x="200.72549019607843" y="36.13725490196079" type="line"/>
      <point x="230.49019607843138" y="126.11764705882354" type="line"/>
      <point x="-19.490196078431374" y="126.11764705882354" type="line"/>
    </contour>
    <contour>
      <point x="14.431372549019608" y="232.09803921568627" type="line"/>
      <point x="264.4117647058824" y="232.09803921568627" type="line"/>
      <point x="294.1764705882353" y="322.078431372549" type="line"/>
      <point x="44.19607843137255" y="322.078431372549" type="line"/>
    </contour>
    <contour>
      <point x="79.80392156862744" y="428.05882352941177" type="line"/>
      <point x="329.7843137254902" y="428.05882352941177" type="line"/>
      <point x="359.54901960784315" y="518.0392156862745" type="line"/>
      <point x="109.56862745098039" y="518.0392156862745" type="line"/>
    </contour>
    <contour>
      <point x="143.01960784313727" y="624.0196078431372" type="line"/>
      <point x="393.0" y="624.0196078431372" type="line"/>
      <point x="422.7647058823529" y="714.0" type="line"/>
      <point x="172.7843137254902" y="714.0" type="line"/>
    </contour>
    <contour>
      <point x="1244.862745098039" y="36.13725490196079" type="line"/>
      <point x="1494.8431372549019" y="36.13725490196079" type="line"/>
      <point x="1524.6078431372548" y="126.11764705882354" type="line"/>
      <point x="1274.6274509803923" y="126.11764705882354" type="line"/>
    </contour>
    <contour>
      <point x="1308.549019607843" y="232.09803921568627" type="line"/>
      <point x="1558.5294117647059" y="232.09803921568627" type="line"/>
      <point x="1588.2941176470588" y="322.078431372549" type="line"/>
      <point x="1338.313725490196" y="322.078431372549" type="line"/>
    </contour>
    <contour>
      <point x="1373.921568627451" y="428.05882352941177" type="line"/>
      <point x="1623.9019607843138" y="428.05882352941177" type="line"/>
      <point x="1653.6666666666667" y="518.0392156862745" type="line"/>
      <point x="1403.686274509804" y="518.0392156862745" type="line"/>
    </contour>
    <contour>
      <point x="1437.137254901961" y="624.0196078431372" type="line"/>
      <point x="1687.1176470588234" y="624.0196078431372" type="line"/>
      <point x="1716.8823529411766" y="714.0" type="line"/>
      <point x="1466.9019607843138" y="714.0" type="line"/>
    </contour>
  </outline>
</glyph>
